<?xml version="1.0" encoding="UTF-8" standalone="no"?>
<svg
   xmlns:dc="http://purl.org/dc/elements/1.1/"
   xmlns:cc="http://creativecommons.org/ns#"
   xmlns:rdf="http://www.w3.org/1999/02/22-rdf-syntax-ns#"
   xmlns:svg="http://www.w3.org/2000/svg"
   xmlns="http://www.w3.org/2000/svg"
   xmlns:sodipodi="http://sodipodi.sourceforge.net/DTD/sodipodi-0.dtd"
   xmlns:inkscape="http://www.inkscape.org/namespaces/inkscape"
   version="1.1"
   id="Capa_1"
   x="0px"
   y="0px"
   width="12"
   height="12"
   viewBox="0 0 12 12"
   xml:space="preserve"
   sodipodi:docname="orphan_red5.svg"
   inkscape:version="1.0.1 (3bc2e813f5, 2020-09-07)"><metadata
   id="metadata55"><rdf:RDF><cc:Work
       rdf:about=""><dc:format>image/svg+xml</dc:format><dc:type
         rdf:resource="http://purl.org/dc/dcmitype/StillImage" /><dc:title></dc:title></cc:Work></rdf:RDF></metadata><defs
   id="defs53" /><sodipodi:namedview
   pagecolor="#ffffff"
   bordercolor="#666666"
   borderopacity="1"
   objecttolerance="10"
   gridtolerance="10"
   guidetolerance="10"
   inkscape:pageopacity="0"
   inkscape:pageshadow="2"
   inkscape:window-width="1798"
   inkscape:window-height="991"
   id="namedview51"
   showgrid="false"
   inkscape:zoom="47.437486"
   inkscape:cx="0.78958849"
   inkscape:cy="5.2040062"
   inkscape:window-x="106"
   inkscape:window-y="14"
   inkscape:window-maximized="0"
   inkscape:current-layer="Capa_1"
   inkscape:document-rotation="0" />
<g
   id="g18"
   transform="matrix(0.01348165,0,0,0.01912658,0,-2.5122764)"
   style="fill:#ff6600">
	<g
   id="g16"
   style="fill:#ff6600">
		<g
   id="g8"
   style="fill:#ff6600">
			<path
   d="m 443.6,131.35 c -16.5,0 -30,13.5 -30,30 v 111.9 c 0,16.5 13.5,30 30,30 16.5,0 30,-13.5 30,-30 v -111.9 c 0,-16.5 -13.4,-30 -30,-30 z"
   id="path2"
   style="fill:#ff6600" />
			<path
   d="m 287.3,199.75 c -5.7,-5.7 -13.2,-8.8 -21.2,-8.8 -8,0 -15.5,3.1 -21.2,8.8 -11.7,11.7 -11.7,30.7 0,42.4 l 79.1,79.1 c 5.7,5.7 13.2,8.8 21.2,8.8 8,0 15.5,-3.1 21.199,-8.8 11.7,-11.7 11.7,-30.7 0,-42.4 z"
   id="path4"
   style="fill:#ff6600" />
			<path
   d="m 566.1,321.25 79.101,-79.1 c 11.699,-11.7 11.699,-30.7 0,-42.4 -5.7,-5.7 -13.2,-8.8 -21.2,-8.8 -8,0 -15.5,3.1 -21.2,8.8 l -79.1,79.1 c -11.7,11.7 -11.7,30.7 0,42.4 5.699,5.7 13.199,8.8 21.199,8.8 8,0 15.499,-3.1 21.2,-8.8 z"
   id="path6"
   style="fill:#ff6600" />
		</g>
		<g
   id="g14"
   style="fill:#ff6600">
			<path
   d="m 834.899,434.349 c -35.6,-35.6 -82.899,-55.2 -133.199,-55.2 H 546 c -11,0 -20,9 -20,20 v 87.601 c 0,11 9,20 20,20 h 48.1 c 11,0 20,-9 20,-20 v -19.5 h 87.6 c 55.399,0 100.199,44.9 100.199,100.199 v 1.4 0 1.4 c 0,55.4 -44.899,100.199 -100.199,100.199 h -87.6 v -19.5 c 0,-11 -9,-20 -20,-20 H 546 c -11,0 -20,9 -20,20 v 87.801 c 0,11 9,20 20,20 h 155.7 c 50.3,0 97.6,-19.6 133.199,-55.201 35.601,-35.6 55.2,-82.898 55.2,-133.199 v -1.4 0 -1.4 C 890,517.25 870.5,469.949 834.899,434.349 Z"
   id="path10"
   style="fill:#ff6600" />
			<path
   d="m 55.2,434.349 c 35.6,-35.6 82.9,-55.2 133.2,-55.2 h 155.7 c 11,0 20,9 20,20 v 87.601 c 0,11 -9,20 -20,20 H 296 c -11,0 -20,-9 -20,-20 v -19.5 h -87.7 c -55.4,0 -100.2,44.9 -100.2,100.199 v 1.4 0 1.4 c 0,55.4 44.9,100.199 100.2,100.199 h 87.6 v -19.5 c 0,-11 9,-20 20,-20 H 344 c 11,0 20,9 20,20 v 87.801 c 0,11 -9,20 -20,20 H 188.3 c -50.3,0 -97.6,-19.6 -133.2,-55.201 C 19.6,668.049 0,620.75 0,570.449 v -1.4 0 -1.398 C 0,517.25 19.6,469.949 55.2,434.349 Z"
   id="path12"
   style="fill:#ff6600" />
		</g>
	</g>
</g>
<g
   id="g20"
   transform="matrix(0.01348165,0,0,0.01912658,0,-2.5122764)"
   style="fill:#ff0000">
</g>
<g
   id="g22"
   transform="matrix(0.01348165,0,0,0.01912658,0,-2.5122764)"
   style="fill:#ff0000">
</g>
<g
   id="g24"
   transform="matrix(0.01348165,0,0,0.01912658,0,-2.5122764)"
   style="fill:#ff0000">
</g>
<g
   id="g26"
   transform="matrix(0.01348165,0,0,0.01912658,0,-2.5122764)"
   style="fill:#ff0000">
</g>
<g
   id="g28"
   transform="matrix(0.01348165,0,0,0.01912658,0,-2.5122764)"
   style="fill:#ff0000">
</g>
<g
   id="g30"
   transform="matrix(0.01348165,0,0,0.01912658,0,-2.5122764)"
   style="fill:#ff0000">
</g>
<g
   id="g32"
   transform="matrix(0.01348165,0,0,0.01912658,0,-2.5122764)"
   style="fill:#ff0000">
</g>
<g
   id="g34"
   transform="matrix(0.01348165,0,0,0.01912658,0,-2.5122764)"
   style="fill:#ff0000">
</g>
<g
   id="g36"
   transform="matrix(0.01348165,0,0,0.01912658,0,-2.5122764)"
   style="fill:#ff0000">
</g>
<g
   id="g38"
   transform="matrix(0.01348165,0,0,0.01912658,0,-2.5122764)"
   style="fill:#ff0000">
</g>
<g
   id="g40"
   transform="matrix(0.01348165,0,0,0.01912658,0,-2.5122764)"
   style="fill:#ff0000">
</g>
<g
   id="g42"
   transform="matrix(0.01348165,0,0,0.01912658,0,-2.5122764)"
   style="fill:#ff0000">
</g>
<g
   id="g44"
   transform="matrix(0.01348165,0,0,0.01912658,0,-2.5122764)"
   style="fill:#ff0000">
</g>
<g
   id="g46"
   transform="matrix(0.01348165,0,0,0.01912658,0,-2.5122764)"
   style="fill:#ff0000">
</g>
<g
   id="g48"
   transform="matrix(0.01348165,0,0,0.01912658,0,-2.5122764)"
   style="fill:#ff0000">
</g>
</svg>
