<?xml version="1.0" encoding="UTF-8" standalone="no"?>
<svg
   xmlns:dc="http://purl.org/dc/elements/1.1/"
   xmlns:cc="http://creativecommons.org/ns#"
   xmlns:rdf="http://www.w3.org/1999/02/22-rdf-syntax-ns#"
   xmlns:svg="http://www.w3.org/2000/svg"
   xmlns="http://www.w3.org/2000/svg"
   xmlns:sodipodi="http://sodipodi.sourceforge.net/DTD/sodipodi-0.dtd"
   xmlns:inkscape="http://www.inkscape.org/namespaces/inkscape"
   width="16"
   height="16"
   version="1.1"
   id="svg6"
   sodipodi:docname="TestCaseError1.svg"
   inkscape:version="1.0.1 (3bc2e813f5, 2020-09-07)">
  <metadata
     id="metadata12">
    <rdf:RDF>
      <cc:Work
         rdf:about="">
        <dc:format>image/svg+xml</dc:format>
        <dc:type
           rdf:resource="http://purl.org/dc/dcmitype/StillImage" />
        <dc:title></dc:title>
      </cc:Work>
    </rdf:RDF>
  </metadata>
  <defs
     id="defs10" />
  <sodipodi:namedview
     pagecolor="#ffffff"
     bordercolor="#666666"
     borderopacity="1"
     objecttolerance="10"
     gridtolerance="10"
     guidetolerance="10"
     inkscape:pageopacity="0"
     inkscape:pageshadow="2"
     inkscape:window-width="1527"
     inkscape:window-height="1058"
     id="namedview8"
     showgrid="false"
     inkscape:zoom="22.96875"
     inkscape:cx="9.3387755"
     inkscape:cy="16"
     inkscape:window-x="219"
     inkscape:window-y="0"
     inkscape:window-maximized="0"
     inkscape:current-layer="svg6"
     inkscape:document-rotation="0" />
  <path
     d="M 14.819989,4.222794 C 14.388851,3.6982241 12.222036,3.5799894 11.204528,3.6584683 11.244362,2.5607956 11.780355,1.7605168 10.509789,0.80224754 M 2.9068963,0.27612874 h 5.530388 C 9.849024,0.24360124 10.754061,0.88640584 11.703617,1.6453799 l 2.264055,1.7724885 c 1.168054,0.9185135 1.63141,1.78488 1.757353,3.0358962 V 15.212946 H 2.9068963 Z"
     fill="#eff1f5"
     stroke="#9f9fa1"
     stroke-linecap="round"
     stroke-linejoin="round"
     id="path2"
     style="stroke-width:0.54995" />
  <path
     d="M 8.763566,5.3674506 8.4519289,6.4671889 A 2.762558,2.4349128 0 0 0 8.0711692,6.6029782 L 6.9722381,6.0216143 6.1908021,6.7103704 6.8515667,7.6815476 A 2.762558,2.4349128 0 0 0 6.6934049,8.0155994 L 5.4486136,8.2892431 v 0.9742747 l 1.2477202,0.274677 a 2.762558,2.4349128 0 0 0 0.1540613,0.335084 l -0.659593,0.9685952 0.7820218,0.689273 1.10186,-0.58188 a 2.762558,2.4349128 0 0 0 0.3790023,0.138887 l 0.3104656,1.097156 h 1.1053747 l 0.3116375,-1.099738 a 2.762558,2.4349128 0 0 0 0.380174,-0.135789 l 1.099517,0.581364 0.781436,-0.688756 -0.660764,-0.9706612 a 2.762558,2.4349128 0 0 0 0.158161,-0.334052 l 1.244791,-0.27416 V 8.2897594 L 11.936759,8.0145667 A 2.762558,2.4349128 0 0 0 11.782698,7.6799985 L 12.442291,6.7103704 11.660855,6.0221306 10.558994,6.6040104 A 2.762558,2.4349128 0 0 0 10.179992,6.4651234 L 9.8695265,5.3674506 H 8.7641518 Z M 9.3165462,7.8023635 A 1.1053747,0.97427488 0 0 1 10.421335,8.7766384 1.1053747,0.97427488 0 0 1 9.3165462,9.7503968 1.1053747,0.97427488 0 0 1 8.2111716,8.7766384 1.1053747,0.97427488 0 0 1 9.3165462,7.8023635 Z"
     fill="#478cbf"
     id="path4"
     style="stroke-width:0.54995" />
  <path
     d="M 4.100489,8.771721 C 1.8358475,8.771721 0,10.389834 0,12.385884 c 0,1.99605 1.8358475,3.614162 4.100489,3.614162 2.2646413,0 4.1004888,-1.618112 4.1004888,-3.614162 0,-1.99605 -1.8358475,-3.614163 -4.1004888,-3.614163 z m -1.6566561,1.423877 1.6566561,1.460173 1.6566561,-1.460173 0.8283572,0.730112 -1.656656,1.460174 1.656656,1.460173 L 5.7571451,14.57617 4.100489,13.115996 2.4438329,14.57617 1.6154755,13.846057 3.2721316,12.385884 1.6154755,10.92571 Z"
     fill="#ff5d5d"
     id="path14"
     style="stroke-width:0.54995" />
</svg>
