<?xml version="1.0" encoding="UTF-8" standalone="no"?>
<svg
   xmlns:dc="http://purl.org/dc/elements/1.1/"
   xmlns:cc="http://creativecommons.org/ns#"
   xmlns:rdf="http://www.w3.org/1999/02/22-rdf-syntax-ns#"
   xmlns:svg="http://www.w3.org/2000/svg"
   xmlns="http://www.w3.org/2000/svg"
   xmlns:sodipodi="http://sodipodi.sourceforge.net/DTD/sodipodi-0.dtd"
   xmlns:inkscape="http://www.inkscape.org/namespaces/inkscape"
   width="32"
   height="32"
   version="1.1"
   id="svg6"
   sodipodi:docname="TestCaseError.svg"
   inkscape:version="1.0.1 (3bc2e813f5, 2020-09-07)">
  <metadata
     id="metadata12">
    <rdf:RDF>
      <cc:Work
         rdf:about="">
        <dc:format>image/svg+xml</dc:format>
        <dc:type
           rdf:resource="http://purl.org/dc/dcmitype/StillImage" />
        <dc:title></dc:title>
      </cc:Work>
    </rdf:RDF>
  </metadata>
  <defs
     id="defs10" />
  <sodipodi:namedview
     pagecolor="#ffffff"
     bordercolor="#666666"
     borderopacity="1"
     objecttolerance="10"
     gridtolerance="10"
     guidetolerance="10"
     inkscape:pageopacity="0"
     inkscape:pageshadow="2"
     inkscape:window-width="1527"
     inkscape:window-height="1058"
     id="namedview8"
     showgrid="false"
     inkscape:zoom="22.96875"
     inkscape:cx="9.3387755"
     inkscape:cy="16"
     inkscape:window-x="219"
     inkscape:window-y="0"
     inkscape:window-maximized="0"
     inkscape:current-layer="svg6" />
  <path
     d="M25.396 9.18c-.736-1.016-4.435-1.245-6.172-1.093.068-2.126.983-3.676-1.186-5.532M5.059 1.536H14.5c2.41-.063 3.955 1.182 5.576 2.652l3.865 3.433c1.994 1.779 2.785 3.457 3 5.88v16.965H5.059z"
     fill="#eff1f5"
     stroke="#9f9fa1"
     stroke-linecap="round"
     stroke-linejoin="round"
     id="path2" />
  <path
     d="M15.057 11.397l-.532 2.13a4.716 4.716 0 0 0-.65.263l-1.876-1.126-1.334 1.334 1.128 1.881a4.716 4.716 0 0 0-.27.647l-2.125.53v1.887l2.13.532a4.716 4.716 0 0 0 .263.649L10.665 22 12 23.335l1.881-1.127a4.716 4.716 0 0 0 .647.269l.53 2.125h1.887l.532-2.13a4.716 4.716 0 0 0 .649-.263l1.877 1.126 1.334-1.334-1.128-1.88a4.716 4.716 0 0 0 .27-.647l2.125-.531v-1.886l-2.13-.533a4.716 4.716 0 0 0-.263-.648l1.126-1.878-1.334-1.333-1.881 1.127a4.716 4.716 0 0 0-.647-.269l-.53-2.126h-1.887zm.944 4.716A1.887 1.887 0 0 1 17.887 18a1.887 1.887 0 0 1-1.886 1.886A1.887 1.887 0 0 1 14.114 18a1.887 1.887 0 0 1 1.887-1.887z"
     fill="#478cbf"
     id="path4" />
  <path
     d="m 7.0965983,17.990476 c -3.866,0 -6.99999997,3.134 -6.99999997,7 0,3.866 3.13399997,7 6.99999997,7 3.8659997,0 6.9999997,-3.134 6.9999997,-7 0,-3.866 -3.134,-7 -6.9999997,-7 z m -2.8281,2.7578 2.8281,2.8281 2.8281,-2.8281 1.4140997,1.4141 -2.8280997,2.8281 2.8280997,2.8281 -1.4140997,1.4141 -2.8281,-2.8281 -2.8281,2.8281 -1.4141,-1.4141 2.8281,-2.8281 -2.8281,-2.8281 z"
     fill="#ff5d5d"
     id="path14"
     style="fill:#0000ff" />
</svg>
