<?xml version="1.0" encoding="UTF-8" standalone="no"?>
<svg
   id="Layer_2"
   viewBox="0 0 938.02 1018.13"
   version="1.1"
   sodipodi:docname="BeeHave.svg.svg"
   inkscape:version="1.1.1 (3bf5ae0d25, 2021-09-20)"
   xmlns:inkscape="http://www.inkscape.org/namespaces/inkscape"
   xmlns:sodipodi="http://sodipodi.sourceforge.net/DTD/sodipodi-0.dtd"
   xmlns="http://www.w3.org/2000/svg"
   xmlns:svg="http://www.w3.org/2000/svg">
  <sodipodi:namedview
     id="namedview39"
     pagecolor="#505050"
     bordercolor="#eeeeee"
     borderopacity="1"
     inkscape:pageshadow="0"
     inkscape:pageopacity="0"
     inkscape:pagecheckerboard="0"
     showgrid="false"
     inkscape:zoom="0.49935644"
     inkscape:cx="465.59928"
     inkscape:cy="598.77069"
     inkscape:window-width="1920"
     inkscape:window-height="1018"
     inkscape:window-x="-6"
     inkscape:window-y="-6"
     inkscape:window-maximized="1"
     inkscape:current-layer="Layer_1-2" />
  <defs
     id="defs4">
    <style
       id="style2">.cls-1{stroke:#000;stroke-linejoin:round;stroke-width:2px;}.cls-1,.cls-2{stroke-linecap:round;}.cls-3{fill:#25ef0f;}.cls-2{fill:none;stroke:#ff9871;stroke-miterlimit:10;stroke-width:4px;}.cls-4{fill:#873555;}.cls-5{fill:#ff9871;}</style>
  </defs>
  <g
     id="Layer_1-2">
    <path
       class="cls-5"
       d="m 480.58875,699.61 c 27.63,-7.99 54.07,-20.08 78.17,-35.79 21.26,-13.86 40.81,-30.45 57.8,-49.32 18.76,-20.84 33.9,-44.43 47.14,-69.07 26.51,-49.31 47.47,-105.8 37.04,-162.42 13.16,8.05 25.72,17.07 37.86,26.61 35.92,28.22 67.97,61.46 94.89,98.35 26.93,36.89 49.03,77.4 65.07,120.17 -1.96,15.61 -16.92,26.93 -27.75,36.76 -12.8,11.61 -25.81,22.99 -39.13,34 -47.61,39.34 -99.96,74.53 -158.15,96.14 -58.35,21.67 -122.61,30.02 -183.69,15.44 -2.36,-27.46 -3.37,-55.1 -7.39,-82.4 -1.43,-9.7 -3.24,-19.43 -5.66,-29 0.98,0.69 2.27,0.97 3.79,0.53 z"
       id="path6" />
    <path
       class="cls-4"
       d="m 595.68875,824.46 c 64.34,-8.59 124.56,-35.31 178.43,-70.85 26.82,-17.69 52.23,-37.48 76.65,-58.34 12.13,-10.37 24.13,-20.94 35.76,-31.86 6.73,-6.32 13,-13.17 17.09,-21.17 14.14,41.04 23.58,84.54 23.79,127.9 0.12,24.67 -3.18,49.38 -11.31,72.72 -0.83,0.35 -1.58,1.01 -2.13,2.05 -5.77,10.8 -15.31,18.4 -25.48,24.86 -11.13,7.06 -22.74,13.44 -34.17,20 -43.92,25.22 -88.83,49.59 -137.11,65.45 -47.71,15.68 -99.05,23.13 -148.85,13.94 -2.14,-0.39 -3.83,0.53 -4.86,1.91 -34.25,-22.77 -54.07,-59.89 -64.16,-99.22 -4.35,-16.96 -6.83,-34.15 -8.57,-51.44 34.41,7.74 69.97,8.72 104.91,4.06 z"
       id="path8" />
    <path
       class="cls-4"
       d="m 452.73875,639.99 c 18.39,-17.83 28.72,-41.65 33.79,-66.45 4.71,-22.99 5.53,-46.59 5.55,-69.99 0.02,-23.89 -0.27,-47.84 -2.29,-71.65 -3.7,-43.71 -13.82,-88.17 -41.24,-123.11 23.59,1.22 47.11,3.96 70.35,8.2 36.57,6.67 72.52,16.85 107.2,30.23 21.86,8.43 43.29,18.14 63.82,29.45 0.85,0.47 1.67,1 2.52,1.48 -1.14,1.05 -1.82,2.6 -1.43,4.52 6.27,30.88 2.15,62.58 -7.15,92.41 -8.33,26.74 -20.62,52.12 -34.41,76.44 -13.14,23.17 -28.37,44.93 -46.95,64.07 -34.16,35.18 -77.33,61.22 -124.45,74.84 -1.48,0.43 -2.43,1.33 -2.92,2.41 -2.91,-10.2 -6.61,-20.16 -11.5,-29.58 -4.19,-8.07 -9.34,-15.88 -15.85,-22.29 1.55,0.65 3.4,0.54 4.96,-0.98 z"
       id="path10" />
    <path
       class="cls-5"
       d="m 653.45875,979.89 c 51.87,-7 100.93,-26.39 147.34,-49.99 23.5,-11.95 46.41,-24.99 69.22,-38.19 11.63,-6.73 24.43,-13.33 35.12,-22.04 -5.83,12.61 -12.38,24.95 -19.3,36.83 -20.54,35.24 -48.08,66.3 -85.71,83.53 -35.75,16.38 -77.11,19.16 -115.85,16.55 -35.52,-2.39 -72.42,-9.83 -104.5,-26.13 24.46,3.12 49.19,2.73 73.68,-0.58 z"
       id="path12" />
    <path
       class="cls-3"
       d="m 247.02875,365.75 c 0.02,0.06 -0.15,0.12 -0.41,0.18 0.2,-0.2 0.36,-0.31 0.41,-0.18 z"
       id="path14" />
    <path
       class="cls-5"
       d="m 488.90875,302.84 c 1.01,-6.56 2.16,-13.1 3.55,-19.59 13.57,-63.24 45.13,-122.41 90.14,-168.86 46.89,-48.39 108.12,-81.68 173.86,-96.08 16.43,-3.6 33.1,-6.01 49.88,-7.14 15.97,-1.08 32.64,-1.77 48.53,0.58 15.26,2.26 29.96,8.69 36.09,23.86 5.91,14.64 4.29,31.98 0.08,46.85 -8.61,30.43 -30.51,55.38 -53.76,75.88 -26.6,23.46 -56.66,43.31 -87.08,61.43 -62.56,37.26 -129.57,66.18 -196.32,94.95 -21.41,-5.18 -43.11,-9.16 -64.97,-11.88 z"
       id="path16" />
    <path
       class="cls-5"
       d="m 561.36875,123.57 c -43.06,50.37 -71.97,112.58 -81.87,178.15 -4.69,-0.5 -9.38,-0.98 -14.08,-1.36 0.17,-0.48 0.3,-0.99 0.31,-1.58 0.82,-30.24 3.64,-60.41 8.6,-90.26 8.83,-53.17 24.01,-105.4 45.39,-154.89 5.13,-11.89 10.3,-24.02 16.58,-35.36 2.94,-5.31 6.44,-9.1 12.77,-6.18 5.25,2.42 10.25,6.12 14.77,9.7 17.97,14.22 31.44,33.7 38.3,55.55 0.59,1.89 1.95,2.89 3.46,3.2 -15.96,12.98 -30.81,27.34 -44.23,43.03 z"
       id="path18" />
    <path
       class="cls-5"
       d="m 212.01875,427.3 c 3.44,-0.54 8.89,-0.65 11.55,0.65 5.01,2.84 8.23,8.29 10.56,13.38 2.6,5.67 4.41,12.29 3.96,18.57 -0.61,8.35 -5.88,17.91 -14.64,19.77 -11.12,2.36 -19.36,-7.98 -23.22,-16.97 -3.97,-9.26 -3.03,-21.43 3.15,-29.48 2.53,-3.3 5.07,-5.36 8.63,-5.91 z"
       id="path20" />
    <path
       class="cls-4"
       d="m 17.04875,284.77 c 10.04,-4.41 27.32,-3.27 30.81,3.65 0.44,0.87 -0.2,3.22 -1,3.78 -1.92,1.35 -9.85,1.31 -10.89,1.38 -4.16,0.26 -8.32,0.52 -12.48,0.78 -2.68,0.17 -5.4,0.42 -8.08,0.12 -1.46,-0.16 -3.55,-0.72 -4.34,-1.63 -0.36,-0.42 -0.57,-0.82 -0.57,-1.51 0,-0.69 0.47,-1.67 1.03,-2.43 1.37,-1.86 3.43,-3.22 5.53,-4.14 z"
       id="path22" />
    <path
       class="cls-5"
       d="m 307.73875,575.57 c 9.56,-12.43 7.82,-30.49 6.86,-45.18 -3.77,-57.64 -25.3,-113.33 -60.91,-158.72 0.73,-0.92 1.41,-1.94 2.18,-3 3.36,-4.57 7.1,-9.1 11.04,-13.49 12.04,-13.41 26.04,-25.72 42.58,-33.24 10.24,-4.66 21.51,-6.17 32.54,-7.89 12.6,-1.96 25.28,-3.41 38,-4.41 18.56,-1.45 37.18,-1.85 55.78,-1.33 16.86,18.92 27.92,41.94 34.71,66.22 12.3,43.97 12.45,90.92 12.01,136.25 -0.42,42.6 -4.08,91.04 -36.52,122.47 -1.65,1.6 -1.74,3.55 -0.97,5.13 -6.32,-5.48 -13.54,-9.57 -21.31,-12.65 -17.45,-6.89 -36.52,-8.58 -54.65,-13.01 -23.16,-5.66 -44.03,-15.85 -61.41,-32.38 -1.11,-1.02 -2.28,-1.84 -3.48,-2.5 1.38,-0.21 2.63,-1.06 3.57,-2.27 z"
       id="path24" />
    <path
       class="cls-4"
       d="m 202.26875,378.76 c 7.72,-5.04 16.83,-5.45 25.75,-4.63 5.39,0.5 11.31,2 16.89,1.63 9.78,12.17 18.47,25.2 26.02,38.86 13.39,24.2 23.09,50.35 28.83,77.4 2.87,13.52 4.71,27.24 5.48,41.04 0.69,12.37 2.31,27.27 -5.72,37.7 -1.21,1.57 -0.73,3.9 0.47,5.42 -8.53,-2.17 -18.32,1.86 -26.23,5.38 -14.22,6.34 -28.13,14.93 -43.77,17.25 -7.15,1.06 -14.55,0.28 -20.88,-3.37 -6.92,-3.98 -12.87,-10.11 -17.94,-16.19 -22.73,-27.25 -29.8,-65.74 -28.34,-100.31 0.79,-18.76 4.29,-37.44 10.75,-55.08 3.02,-8.26 6.78,-16.24 11.28,-23.8 4.51,-7.57 9.91,-16.39 17.42,-21.3 z m -8.56,92.2 c 6.47,12.4 20.82,22.63 35.19,16.98 12.1,-4.76 19.14,-18.18 18.79,-30.83 -0.22,-7.72 -2.7,-15.54 -6.19,-22.37 -2.84,-5.55 -6.8,-11 -12.14,-14.39 -0.28,-0.23 -0.6,-0.44 -0.97,-0.62 -0.39,-0.22 -0.77,-0.36 -1.14,-0.47 -5.66,-2.32 -12.61,-2.19 -18.47,-1 -6.56,1.33 -11.69,6.82 -15.06,12.31 -7.53,12.28 -6.48,27.99 0,40.4 z"
       id="path26" />
    <path
       class="cls-2"
       d="m 195.53166,369.46193 c -15.97,-11.71 -21.62291,-30.31193 -36.18291,-43.63193 -17.73,-16.21 -41.49,-23.88 -64.8,-27.53 -14.11,-2.21 -16.45,-4.56 -30.71,-5.26"
       id="path28"
       sodipodi:nodetypes="cccc" />
  </g>
  <g
     id="Layer_2-2"
     transform="matrix(-1,0,0,1,938.05875,0)">
    <g
       id="g35">
      <path
         class="cls-1"
         d="m 934.33,283.72 c -5.19,-7.13 -14.29,-10.01 -22.76,-10.63 -9.18,-0.67 -18.74,1.92 -26.24,7.25 -2.1,1.49 -3.09,4.16 -1.71,6.52 0.68,1.17 2.01,2.02 3.4,2.29 -24.41,1.25 -49.18,3.16 -72.26,11.61 -11.03,4.04 -21.59,9.38 -30.94,16.52 -9.19,7.01 -16.38,15.53 -23.06,24.9 -6.97,9.76 -13.78,20.08 -24.2,26.42 -6.07,-2.9 -12.78,-4.22 -19.69,-4.21 -7.71,0.01 -15.31,2.09 -22.99,1.96 -0.13,0 -1.04,-0.07 -1.8,-0.17 -0.6,-0.89 -1.39,-1.75 -1.97,-2.54 -3.77,-5.1 -7.77,-10.03 -12,-14.76 -12.36,-13.83 -26.93,-26.66 -43.84,-34.6 -10.12,-4.76 -20.58,-6.81 -31.56,-8.61 -13.03,-2.14 -26.15,-3.8 -39.3,-4.97 -24.85,-2.2 -49.85,-2.6 -74.75,-1.28 -2.31,0.12 -4.62,0.32 -6.93,0.47 0.05,-0.3 0.08,-0.62 0.07,-0.96 -1.57,-57.89 -10.58,-115.57 -26.82,-171.16 -8.04,-27.53 -17.87,-54.51 -29.33,-80.79 -2.89,-6.64 -5.9,-13.24 -9.01,-19.78 -2.78,-5.86 -5.32,-12.19 -9.15,-17.46 -3.45,-4.74 -8.28,-8.4 -14.4,-8.25 -6.55,0.17 -12.51,4.28 -17.74,7.84 -23.08,15.69 -40.31,39.01 -48.67,65.62 -0.11,0.35 -0.18,0.7 -0.21,1.02 C 290.01,47.63 248.01,26.49 203.39,14.07 169.79,4.71 134.72,0.19 99.85,1.12 84.38,1.53 67.5,3.15 54.36,12.11 40.15,21.81 34.31,38.24 33.83,54.9 c -0.94,32.89 15.71,63.04 36.82,87.11 23.36,26.63 52.82,47.85 82.23,67.26 62.98,41.56 131.96,72.88 201.01,102.84 5.08,2.2 10.16,4.39 15.24,6.58 -2.71,0.73 -5.44,1.43 -8.14,2.2 -30.95,8.81 -61.23,20.08 -90.35,33.77 -13.65,6.41 -27.24,13.26 -40.04,21.25 -32.68,20.42 -62.7,45.93 -89.36,73.68 -32.22,33.53 -59.92,71.5 -82.01,112.41 -22.18,41.08 -38.87,85.25 -48.85,130.88 -11.18,51.08 -15.01,106.51 3.61,156.37 7.87,21.08 18.13,41.75 29.39,61.21 10.46,18.08 22.61,35.35 37.17,50.37 28.75,29.65 65.95,47.17 106.61,53.07 41.64,6.04 85.05,3.42 125.83,-6.86 39.27,-9.9 76.57,-27.79 101.66,-60.54 28.22,-36.85 38.58,-84.27 42.66,-129.61 2.33,-25.85 3.07,-51.79 6.26,-77.57 2.82,-22.79 7.14,-46.26 17.05,-67.15 4.31,-9.08 9.59,-18.04 16.9,-25.03 6.35,-6.07 14.14,-10.35 22.38,-13.26 18.4,-6.51 38.16,-8.12 56.95,-13.24 22.7,-6.19 43.15,-17.19 60.25,-33.44 1.38,-1.27 3.14,-1.91 4.76,-2.04 2.72,-0.21 4.89,0.26 7.52,0.99 6.89,1.91 13.34,5.22 19.76,8.31 14.51,7 30.38,15.22 46.98,14.36 17.18,-0.89 30.37,-13.36 40.36,-26.34 10.94,-14.22 18.23,-31.03 22.69,-48.34 9.51,-36.93 7.46,-77.9 -5.86,-113.64 -3.24,-8.7 -7.15,-17.17 -11.9,-25.15 -4.41,-7.4 -9.58,-15.38 -16.16,-21.11 15.97,-11.71 23.95,-31.29 38.52,-44.61 17.73,-16.21 41.49,-23.88 64.8,-27.53 14.11,-2.21 28.4,-2.98 42.66,-3.67 0.12,0.15 0.21,0.3 0.34,0.45 2.91,3.14 6.81,4.11 10.92,4.37 4.88,0.31 9.76,0.64 14.64,0.92 3.53,0.2 7.28,0.13 10.67,-0.99 3.91,-1.29 7.13,-3.84 8.58,-7.78 1.46,-3.97 0.42,-8.37 -2.02,-11.72 z m -242.96,82.35 c -0.26,-0.06 -0.43,-0.12 -0.41,-0.18 0.05,-0.13 0.21,-0.02 0.41,0.18 z M 335.86,77.48 c 6.87,-21.85 20.33,-41.34 38.3,-55.55 4.52,-3.58 9.52,-7.27 14.77,-9.7 6.33,-2.92 9.82,0.87 12.77,6.18 6.28,11.33 11.45,23.47 16.58,35.36 21.38,49.49 36.56,101.72 45.39,154.89 4.95,29.85 7.78,60.02 8.6,90.26 0.02,0.59 0.14,1.11 0.31,1.58 -4.7,0.39 -9.39,0.86 -14.08,1.36 -9.9,-65.57 -38.81,-127.78 -81.87,-178.15 -13.42,-15.7 -28.27,-30.06 -44.23,-43.03 1.51,-0.31 2.87,-1.32 3.46,-3.2 z M 187.8,219.92 C 157.38,201.8 127.32,181.95 100.72,158.49 77.47,137.98 55.57,113.04 46.96,82.61 42.76,67.74 41.13,50.41 47.04,35.76 53.16,20.6 67.86,14.16 83.13,11.9 c 15.89,-2.35 32.56,-1.66 48.53,-0.58 16.78,1.14 33.45,3.54 49.88,7.14 65.74,14.4 126.97,47.69 173.86,96.08 45.01,46.45 76.57,105.62 90.14,168.86 1.39,6.49 2.54,13.03 3.55,19.59 -21.86,2.72 -43.56,6.71 -64.97,11.88 C 317.37,286.1 250.36,257.18 187.8,219.92 Z m 65.92,786.82 c -38.75,2.6 -80.1,-0.17 -115.85,-16.55 -37.62,-17.24 -65.17,-48.3 -85.71,-83.53 -6.92,-11.88 -13.47,-24.22 -19.3,-36.83 10.68,8.71 23.48,15.31 35.12,22.04 22.81,13.2 45.73,26.24 69.22,38.19 46.41,23.6 95.47,42.98 147.34,49.99 24.49,3.31 49.22,3.69 73.68,0.58 -32.07,16.3 -68.98,23.74 -104.5,26.13 z M 438.64,871.99 c -10.09,39.33 -29.92,76.45 -64.16,99.22 -1.03,-1.39 -2.72,-2.31 -4.86,-1.91 -49.8,9.19 -101.13,1.75 -148.85,-13.94 -48.28,-15.87 -93.18,-40.24 -137.11,-65.45 -11.43,-6.56 -23.04,-12.94 -34.17,-20 -10.18,-6.46 -19.71,-14.05 -25.48,-24.86 -0.55,-1.04 -1.3,-1.69 -2.13,-2.05 -8.13,-23.33 -11.43,-48.05 -11.31,-72.72 0.21,-43.36 9.65,-86.85 23.79,-127.9 4.1,8 10.36,14.85 17.09,21.17 11.64,10.92 23.63,21.49 35.76,31.86 24.42,20.86 49.83,40.65 76.65,58.34 53.87,35.54 114.09,62.26 178.43,70.85 34.93,4.66 70.49,3.68 104.91,-4.06 -1.74,17.29 -4.22,34.49 -8.57,51.44 z m 16.89,-143.77 c -4.02,27.3 -5.02,54.94 -7.39,82.4 C 387.07,825.2 322.81,816.85 264.45,795.18 206.26,773.57 153.91,738.39 106.3,699.04 92.98,688.03 79.96,676.65 67.17,665.04 56.34,655.21 41.38,643.89 39.42,628.28 55.47,585.51 77.56,545 104.49,508.11 c 26.93,-36.89 58.98,-70.14 94.89,-98.35 12.14,-9.54 24.69,-18.56 37.86,-26.61 -10.43,56.62 10.54,113.11 37.04,162.42 13.24,24.64 28.38,48.24 47.14,69.07 16.99,18.87 36.53,35.46 57.8,49.32 24.1,15.71 50.54,27.8 78.17,35.79 1.51,0.44 2.8,0.15 3.79,-0.53 -2.41,9.57 -4.23,19.3 -5.66,29 z m 18.83,-64.83 c -4.9,9.42 -8.59,19.38 -11.5,29.58 -0.5,-1.08 -1.45,-1.98 -2.92,-2.41 -47.11,-13.63 -90.29,-39.66 -124.45,-74.84 -18.58,-19.14 -33.81,-40.9 -46.95,-64.07 -13.79,-24.32 -26.08,-49.7 -34.41,-76.44 -9.3,-29.83 -13.42,-61.53 -7.15,-92.41 0.39,-1.92 -0.29,-3.47 -1.43,-4.52 0.85,-0.48 1.67,-1.01 2.52,-1.48 20.53,-11.31 41.96,-21.02 63.82,-29.45 34.69,-13.38 70.63,-23.56 107.2,-30.23 23.24,-4.24 46.75,-6.98 70.35,-8.2 -27.42,34.94 -37.54,79.4 -41.24,123.11 -2.01,23.81 -2.31,47.77 -2.29,71.65 0.02,23.4 0.84,47 5.55,69.99 5.08,24.8 15.4,48.62 33.79,66.45 1.56,1.51 3.41,1.63 4.96,0.98 -6.52,6.41 -11.66,14.22 -15.85,22.29 z m 155.98,-82.91 c -17.38,16.52 -38.26,26.72 -61.41,32.38 -18.13,4.43 -37.2,6.12 -54.65,13.01 -7.78,3.07 -14.99,7.17 -21.31,12.65 0.77,-1.58 0.68,-3.53 -0.97,-5.13 -32.43,-31.44 -36.1,-79.87 -36.52,-122.47 -0.44,-45.33 -0.3,-92.28 12.01,-136.25 6.79,-24.28 17.86,-47.3 34.71,-66.22 18.6,-0.52 37.23,-0.11 55.78,1.33 12.72,0.99 25.4,2.45 38,4.41 11.02,1.71 22.29,3.23 32.54,7.89 16.54,7.52 30.54,19.83 42.58,33.24 3.94,4.39 7.68,8.92 11.04,13.49 0.77,1.05 1.45,2.08 2.18,3 -35.61,45.4 -57.15,101.09 -60.91,158.72 -0.96,14.69 -2.7,32.75 6.86,45.18 0.94,1.22 2.19,2.06 3.57,2.27 -1.2,0.67 -2.37,1.48 -3.48,2.5 z m 122.8,-180.29 c 4.5,7.56 8.26,15.54 11.28,23.8 6.46,17.65 9.97,36.32 10.75,55.08 1.45,34.57 -5.62,73.06 -28.34,100.31 -5.07,6.08 -11.03,12.21 -17.94,16.19 -6.34,3.65 -13.73,4.43 -20.88,3.37 -15.64,-2.32 -29.55,-10.91 -43.77,-17.25 -7.9,-3.52 -17.7,-7.55 -26.23,-5.38 1.2,-1.52 1.68,-3.85 0.47,-5.42 -8.03,-10.44 -6.41,-25.34 -5.72,-37.7 0.77,-13.8 2.61,-27.52 5.48,-41.04 5.74,-27.05 15.44,-53.2 28.83,-77.4 7.55,-13.66 16.25,-26.69 26.02,-38.86 5.58,0.36 11.49,-1.14 16.89,-1.63 8.92,-0.82 18.03,-0.4 25.75,4.63 7.51,4.9 12.91,13.72 17.42,21.3 z m 173.79,-107.2 c -0.79,0.91 -2.88,1.47 -4.34,1.63 -2.68,0.3 -5.4,0.05 -8.08,-0.12 -4.16,-0.26 -8.32,-0.52 -12.48,-0.78 -1.04,-0.07 -0.98,-0.01 -1.57,-0.19 -0.46,-0.14 -0.54,-0.16 -0.88,-0.36 0,-0.03 0,-0.07 0,-0.1 0.32,-1.11 0.24,-2.32 -0.45,-3.51 -1.17,-2 -4.47,-3.29 -6.52,-1.71 -0.43,0.33 -0.81,0.69 -1.16,1.06 -0.75,0.04 -1.49,0.07 -2.24,0.11 0.33,-0.11 0.65,-0.26 0.94,-0.47 8.8,-6.25 20.77,-8.07 30.81,-3.65 2.09,0.92 4.16,2.28 5.53,4.14 0.56,0.76 1.02,1.74 1.03,2.43 0,0.7 -0.2,1.1 -0.57,1.51 z"
         id="path31" />
      <path
         class="cls-1"
         d="m 729.22,418.39 c -5.86,-1.19 -12.81,-1.32 -18.47,1 -0.38,0.11 -0.76,0.25 -1.14,0.47 -0.37,0.18 -0.69,0.39 -0.97,0.62 -5.34,3.39 -9.3,8.84 -12.14,14.39 -3.49,6.83 -5.97,14.66 -6.19,22.37 -0.35,12.66 6.69,26.07 18.79,30.83 14.37,5.66 28.72,-4.57 35.19,-16.98 6.48,-12.41 7.53,-28.12 0,-40.4 -3.37,-5.49 -8.51,-10.98 -15.06,-12.31 z m 8.53,44.44 c -3.85,8.99 -12.1,19.33 -23.22,16.97 -8.76,-1.86 -14.03,-11.42 -14.64,-19.77 -0.46,-6.28 1.36,-12.89 3.96,-18.57 2.33,-5.09 5.55,-10.55 10.56,-13.38 2.66,-1.3 8.12,-1.18 11.55,-0.65 3.56,0.55 6.1,2.61 8.63,5.91 6.18,8.05 7.12,20.22 3.15,29.48 z"
         id="path33" />
    </g>
  </g>
</svg>
