<?xml version="1.0" encoding="UTF-8" standalone="no"?>
<svg
   id="Layer_2"
   viewBox="0 0 1024 1024"
   version="1.1"
   sodipodi:docname="icon.svg"
   inkscape:version="1.2 (dc2aedaf03, 2022-05-15)"
   width="1024"
   height="1024"
   inkscape:export-filename="icon.png"
   inkscape:export-xdpi="96"
   inkscape:export-ydpi="96"
   xmlns:inkscape="http://www.inkscape.org/namespaces/inkscape"
   xmlns:sodipodi="http://sodipodi.sourceforge.net/DTD/sodipodi-0.dtd"
   xmlns="http://www.w3.org/2000/svg"
   xmlns:svg="http://www.w3.org/2000/svg">
  <sodipodi:namedview
     id="namedview39"
     pagecolor="#505050"
     bordercolor="#eeeeee"
     borderopacity="1"
     inkscape:pageshadow="0"
     inkscape:pageopacity="0"
     inkscape:pagecheckerboard="0"
     showgrid="false"
     inkscape:zoom="0.70619665"
     inkscape:cx="162.13614"
     inkscape:cy="545.17393"
     inkscape:window-width="2560"
     inkscape:window-height="1377"
     inkscape:window-x="2552"
     inkscape:window-y="-8"
     inkscape:window-maximized="1"
     inkscape:current-layer="Layer_1-2"
     inkscape:showpageshadow="2"
     inkscape:deskcolor="#505050" />
  <defs
     id="defs4">
    <style
       id="style2">.cls-1{stroke:#000;stroke-linejoin:round;stroke-width:2px;}.cls-1,.cls-2{stroke-linecap:round;}.cls-3{fill:#25ef0f;}.cls-2{fill:none;stroke:#ff9871;stroke-miterlimit:10;stroke-width:4px;}.cls-4{fill:#873555;}.cls-5{fill:#ff9871;}</style>
  </defs>
  <g
     id="Layer_1-2">
    <path
       id="ellipse35845"
       style="fill:#ffffff;fill-opacity:1;stroke:#ffffff;stroke-width:26.6658;stroke-linecap:round;stroke-linejoin:round;stroke-dasharray:none;stroke-opacity:1;paint-order:stroke fill markers"
       inkscape:transform-center-x="232.37558"
       inkscape:transform-center-y="-37.413716"
       d="m 638.30331,75.069467 a 38.388004,38.651726 4.7214545e-8 0 0 -38.38398,38.653043 38.388004,38.651726 4.7214545e-8 0 0 15.44213,30.95403 l -11.86625,20.37262 a 172.14568,172.14568 0 0 0 -86.03877,-23.05476 172.14568,172.14568 0 0 0 -85.35255,22.68143 l -13.61952,-20.33795 a 38.388004,38.651726 4.7214545e-8 0 0 11.79647,-27.84614 38.388004,38.651726 4.7214545e-8 0 0 -38.39243,-38.653303 38.388004,38.651726 4.7214545e-8 0 0 -38.38399,38.653303 38.388004,38.651726 4.7214545e-8 0 0 38.38355,38.65287 38.388004,38.651726 4.7214545e-8 0 0 12.98576,-2.30881 l 13.71507,20.46818 A 172.14568,172.14568 0 0 0 345.31004,314.1408 172.14568,172.14568 0 0 0 370.85625,404.17231 242.79508,117.71883 9.7669275 0 0 278.48082,378.66121 242.79508,117.71883 9.7669275 0 0 19.2366,453.49369 242.79508,117.71883 9.7669275 0 0 187.22537,598.98325 117.71885,242.79511 55.569869 0 0 96.872539,799.89665 117.71885,242.79511 55.569869 0 0 363.69473,759.7154 117.71885,242.79511 55.569869 0 0 398.87572,733.24076 c 16.51541,14.46439 35.68986,25.96532 56.6909,33.66194 l 61.88982,102.73106 61.89027,-102.72217 c 18.78335,-6.88287 36.10407,-16.81631 51.37021,-29.18298 a 242.79511,117.71885 34.430132 0 0 29.58207,21.98679 242.79511,117.71885 34.430132 0 0 266.8133,40.18125 242.79511,117.71885 34.430132 0 0 -90.24839,-200.9045 117.71883,242.79508 80.233073 0 0 167.8936,-145.49846 117.71883,242.79508 80.233073 0 0 -259.25306,-74.83248 117.71883,242.79508 80.233073 0 0 -78.27858,20.25974 172.14568,172.14568 0 0 0 22.37788,-84.78015 172.14568,172.14568 0 0 0 -72.60189,-140.44618 l 12.96843,-22.24765 a 38.388004,38.651726 4.7214545e-8 0 0 8.33303,0.92885 38.388004,38.651726 4.7214545e-8 0 0 38.39288,-38.65331 38.388004,38.651726 4.7214545e-8 0 0 -38.39288,-38.653043 z" />
    <g
       id="g15241"
       transform="matrix(4.3247015,0,0,4.3247015,-474.17317,-50.963389)">
      <ellipse
         style="fill:#d7d7d7;fill-opacity:1;stroke:none;stroke-width:15.875;stroke-linecap:round;stroke-linejoin:round;paint-order:stroke fill markers"
         id="ellipse15207"
         cx="-188.36754"
         cy="95.598633"
         rx="56.141468"
         ry="27.220106"
         inkscape:transform-center-x="52.286337"
         inkscape:transform-center-y="-8.4183811"
         transform="matrix(-0.98550598,-0.16964068,-0.16964068,0.98550598,0,0)" />
      <ellipse
         style="fill:#d7d7d7;fill-opacity:1;stroke:none;stroke-width:15.875;stroke-linecap:round;stroke-linejoin:round;paint-order:stroke fill markers"
         id="ellipse15209"
         cx="-53.81522"
         cy="236.93535"
         rx="56.141472"
         ry="27.220108"
         inkscape:transform-center-x="43.355151"
         inkscape:transform-center-y="30.414751"
         transform="matrix(-0.82481628,0.56540084,0.56540084,0.82481628,0,0)" />
      <ellipse
         style="fill:#d7d7d7;fill-opacity:1;stroke:none;stroke-width:15.875;stroke-linecap:round;stroke-linejoin:round;paint-order:stroke fill markers"
         id="ellipse15211"
         cx="261.08755"
         cy="172.96587"
         rx="56.141468"
         ry="27.220106"
         inkscape:transform-center-x="-52.286359"
         inkscape:transform-center-y="-8.4183785"
         transform="rotate(-9.7669281)" />
      <path
         id="path15213"
         style="fill:#c2c2c2;fill-opacity:1;stroke:none;stroke-width:15.875;stroke-linecap:round;stroke-linejoin:round;paint-order:stroke fill markers"
         inkscape:transform-center-x="52.286337"
         inkscape:transform-center-y="-8.4183811"
         d="m -225.69727,89.125332 a 56.141472,27.220108 44.197059 0 1 40.91644,23.713248 56.141472,27.220108 44.197059 0 1 8.56606,9.32426 56.141468,27.220106 0 0 1 -12.15281,0.65574 56.141468,27.220106 0 0 1 -56.14124,-27.220156 56.141468,27.220106 0 0 1 0.15621,-2.010265 56.141472,27.220108 44.197059 0 1 0.34512,-0.372145 56.141472,27.220108 44.197059 0 1 18.31022,-4.090682 z"
         transform="matrix(-0.98550598,-0.16964068,-0.16964068,0.98550598,0,0)" />
      <ellipse
         style="fill:#d7d7d7;fill-opacity:1;stroke:none;stroke-width:15.875;stroke-linecap:round;stroke-linejoin:round;paint-order:stroke fill markers"
         id="ellipse15215"
         cx="322.35486"
         cy="-20.924355"
         rx="56.141472"
         ry="27.220108"
         inkscape:transform-center-x="-43.35516"
         inkscape:transform-center-y="30.414752"
         transform="rotate(34.430131)" />
      <path
         id="path15217"
         style="fill:#c2c2c2;fill-opacity:1;stroke:none;stroke-width:15.875;stroke-linecap:round;stroke-linejoin:round;paint-order:stroke fill markers"
         inkscape:transform-center-x="-52.286359"
         inkscape:transform-center-y="-8.4183785"
         d="m 223.7577,166.49254 a 56.141472,27.220108 44.197059 0 0 -18.31021,4.09068 56.141472,27.220108 44.197059 0 0 -0.34592,0.41029 56.141468,27.220106 0 0 0 -0.15542,1.97212 56.141468,27.220106 0 0 0 56.14125,27.22016 56.141468,27.220106 0 0 0 12.17631,-0.64907 56.141472,27.220108 44.197059 0 0 -8.58956,-9.33093 56.141472,27.220108 44.197059 0 0 -40.91645,-23.71325 z"
         transform="rotate(-9.7669281)" />
      <path
         sodipodi:type="star"
         style="fill:#000000;fill-opacity:1;stroke:none;stroke-width:26.0006;stroke-linecap:round;stroke-linejoin:round;paint-order:stroke fill markers"
         id="path15219"
         inkscape:flatsided="true"
         sodipodi:sides="3"
         sodipodi:cx="146.20473"
         sodipodi:cy="117.4481"
         sodipodi:r1="57.217747"
         sodipodi:r2="41.982182"
         sodipodi:arg1="1.5707963"
         sodipodi:arg2="2.6179939"
         inkscape:rounded="0"
         inkscape:randomized="0"
         d="m 146.20473,174.66584 -49.552026,-85.826615 99.104046,-2e-6 z"
         inkscape:transform-center-x="-2.8174783e-06"
         transform="matrix(0.62370055,0,0,0.59769912,138.10825,108.47192)"
         inkscape:transform-center-y="2.6453389e-06" />
      <circle
         style="fill:#ffd000;fill-opacity:1;stroke:none;stroke-width:5.29167;stroke-linecap:round;stroke-linejoin:round;stroke-dasharray:none;stroke-opacity:1;paint-order:stroke fill markers"
         id="circle15221"
         cx="229.29622"
         cy="149.98849"
         r="39.805218" />
      <path
         id="path15223"
         style="fill:#000000;fill-opacity:1;stroke:none;stroke-width:15.875;stroke-linecap:round;stroke-linejoin:round;stroke-opacity:1;paint-order:stroke fill markers"
         d="m 229.29609,110.18346 a 39.805218,39.805218 0 0 0 -29.04836,12.59975 44.111374,69.922462 0 0 0 29.08608,17.40772 44.111374,69.922462 0 0 0 29.05611,-17.36587 39.805218,39.805218 0 0 0 -29.09383,-12.6416 z" />
      <path
         id="path15225"
         style="fill:#000000;fill-opacity:1;stroke:none;stroke-width:15.875;stroke-linecap:round;stroke-linejoin:round;stroke-opacity:1;paint-order:stroke fill markers"
         d="m 190.98783,139.22561 a 39.805218,39.805218 0 0 0 -1.49707,10.76265 39.805218,39.805218 0 0 0 0.63046,6.91276 62.071892,65.151703 0 0 0 40.14793,15.52153 62.071892,65.151703 0 0 0 37.82302,-13.53354 39.805218,39.805218 0 0 0 1.00924,-8.90075 39.805218,39.805218 0 0 0 -1.10071,-9.20977 57.394672,65.151703 0 0 1 -37.73155,16.1153 57.394672,65.151703 0 0 1 -39.28132,-17.66818 z" />
      <circle
         style="fill:#000000;fill-opacity:1;stroke:none;stroke-width:15.875;stroke-linecap:round;stroke-linejoin:round;stroke-opacity:1;paint-order:stroke fill markers"
         id="circle15227"
         cx="229.29622"
         cy="84.422211"
         r="39.805218" />
      <path
         style="fill:#000000;fill-opacity:1;stroke:#ffffff;stroke-width:5.29171;stroke-linecap:round;stroke-dasharray:none;stroke-opacity:1;paint-order:normal"
         id="path15229"
         sodipodi:type="arc"
         sodipodi:cx="-234.25961"
         sodipodi:cy="-121.56611"
         sodipodi:rx="10.802462"
         sodipodi:ry="11.12006"
         sodipodi:start="0"
         sodipodi:end="3.5169125"
         sodipodi:arc-type="arc"
         d="m -223.45715,-121.56611 a 10.802462,11.12006 0 0 1 -6.61079,10.24877 10.802462,11.12006 0 0 1 -11.74116,-2.29513 10.802462,11.12006 0 0 1 -2.50102,-12.02992"
         sodipodi:open="true"
         transform="matrix(-0.99120885,0.13230653,-0.12648129,-0.99196899,0,0)" />
      <ellipse
         style="fill:#000000;fill-opacity:1;stroke:none;stroke-width:3.70417;stroke-dasharray:none;stroke-opacity:1;paint-order:normal"
         id="ellipse15231"
         cx="200.26112"
         cy="38.719563"
         rx="8.8764515"
         ry="8.9374323" />
      <ellipse
         style="fill:#000000;fill-opacity:1;stroke:none;stroke-width:3.70417;stroke-dasharray:none;stroke-opacity:1;paint-order:normal"
         id="ellipse15233"
         cx="257.23956"
         cy="38.079681"
         rx="8.8764515"
         ry="8.9374323" />
      <path
         style="fill:#000000;fill-opacity:1;stroke:#ffffff;stroke-width:5.29171;stroke-linecap:round;stroke-dasharray:none;stroke-opacity:1;paint-order:normal"
         id="path15235"
         sodipodi:type="arc"
         sodipodi:cx="222.17664"
         sodipodi:cy="-59.833397"
         sodipodi:rx="10.802462"
         sodipodi:ry="11.12006"
         sodipodi:start="0"
         sodipodi:end="3.5169125"
         sodipodi:arc-type="arc"
         d="m 232.9791,-59.833397 a 10.802462,11.12006 0 0 1 -6.61079,10.248771 10.802462,11.12006 0 0 1 -11.74116,-2.295128 10.802462,11.12006 0 0 1 -2.50102,-12.029925"
         sodipodi:open="true"
         transform="matrix(0.99120885,0.13230653,0.12648129,-0.99196899,0,0)" />
      <path
         style="fill:none;stroke:#000000;stroke-width:3.70417;stroke-linecap:butt;stroke-linejoin:miter;stroke-dasharray:none;stroke-opacity:1"
         d="m 200.37197,39.47571 12.90912,19.270134 h 32.9276 L 257.43402,39.47571"
         id="path15237" />
      <circle
         style="fill:none;fill-opacity:1;stroke:#000000;stroke-width:3.70417;stroke-linecap:round;stroke-linejoin:round;stroke-dasharray:none;stroke-opacity:1;paint-order:stroke fill markers"
         id="circle15239"
         cx="229.29622"
         cy="149.98849"
         r="39.805218" />
    </g>
  </g>
</svg>
