<?xml version="1.0" encoding="UTF-8" standalone="no"?>
<svg
   id="Layer_2"
   viewBox="0 0 1024 1024"
   version="1.1"
   sodipodi:docname="icon.svg"
   inkscape:version="1.2 (dc2aedaf03, 2022-05-15)"
   width="1024"
   height="1024"
   inkscape:export-filename="icon.png"
   inkscape:export-xdpi="96"
   inkscape:export-ydpi="96"
   xmlns:inkscape="http://www.inkscape.org/namespaces/inkscape"
   xmlns:sodipodi="http://sodipodi.sourceforge.net/DTD/sodipodi-0.dtd"
   xmlns="http://www.w3.org/2000/svg"
   xmlns:svg="http://www.w3.org/2000/svg">
  <sodipodi:namedview
     id="namedview39"
     pagecolor="#505050"
     bordercolor="#eeeeee"
     borderopacity="1"
     inkscape:pageshadow="0"
     inkscape:pageopacity="0"
     inkscape:pagecheckerboard="0"
     showgrid="false"
     inkscape:zoom="0.70710678"
     inkscape:cx="728.31998"
     inkscape:cy="335.16861"
     inkscape:window-width="2560"
     inkscape:window-height="1377"
     inkscape:window-x="2552"
     inkscape:window-y="-8"
     inkscape:window-maximized="1"
     inkscape:current-layer="Layer_1-2"
     inkscape:showpageshadow="2"
     inkscape:deskcolor="#505050" />
  <defs
     id="defs4">
    <style
       id="style2">.cls-1{stroke:#000;stroke-linejoin:round;stroke-width:2px;}.cls-1,.cls-2{stroke-linecap:round;}.cls-3{fill:#25ef0f;}.cls-2{fill:none;stroke:#ff9871;stroke-miterlimit:10;stroke-width:4px;}.cls-4{fill:#873555;}.cls-5{fill:#ff9871;}</style>
  </defs>
  <g
     id="Layer_1-2">
    <g
       id="g15241"
       transform="matrix(4.3247015,0,0,4.3247015,-474.17317,-50.963389)">
      <g
         id="g5485">
        <path
           id="ellipse2758"
           style="fill:#d7d7d7;fill-opacity:1;stroke:#ffffff;stroke-width:4.6246;stroke-linecap:round;stroke-linejoin:round;stroke-dasharray:none;stroke-opacity:1;paint-order:stroke fill markers"
           inkscape:transform-center-x="52.286337"
           inkscape:transform-center-y="-8.4183811"
           d="m 253.64054,17.670681 a 8.8764515,8.9374323 1.1867896e-8 0 0 -8.87661,8.937123 8.8764515,8.9374323 1.1867896e-8 0 0 4.57989,7.818911 l -2.16191,12.805255 c -1.3462,-3.949341 -5.07805,-6.775215 -9.49442,-6.775215 -4.9968,0 -9.11699,3.617252 -9.89727,8.386597 -0.7803,-4.769329 -4.90048,-8.386597 -9.89727,-8.386597 -4.30311,0 -7.95621,2.682728 -9.38604,6.473532 l -3.34786,-11.098581 a 8.8764515,8.9374323 1.1867896e-8 0 0 4.36491,-7.690197 8.8764515,8.9374323 1.1867896e-8 0 0 -8.8766,-8.937124 8.8764515,8.9374323 1.1867896e-8 0 0 -8.87661,8.937124 8.8764515,8.9374323 1.1867896e-8 0 0 8.87661,8.937574 8.8764515,8.9374323 1.1867896e-8 0 0 0.99943,-0.06232 l 3.52581,11.687495 c -1.46409,-1.026796 -3.22336,-1.67494 -5.14622,-1.79429 -5.5465,-0.344265 -10.28915,3.844051 -10.63341,9.390551 l -1.30699,21.056366 c -0.05,0.805524 -0.004,1.593705 0.12781,2.354299 -0.19904,1.495794 -0.30394,3.064205 -0.30394,4.710856 0,7.716219 2.19794,14.576351 5.99842,20.2326 a 56.141468,27.220106 9.7669281 0 0 -19.83292,-5.3124 56.141468,27.220106 9.7669281 0 0 -59.94544,17.30158 56.141468,27.220106 9.7669281 0 0 38.84617,33.63853 27.220108,56.141472 55.569869 0 0 -20.89379,46.46093 27.220108,56.141472 55.569869 0 0 61.69682,-9.29074 27.220108,56.141472 55.569869 0 0 8.13279,-6.12262 c 3.81995,3.34608 8.25415,6.00803 13.1119,7.78819 l 14.31006,23.75165 14.3096,-23.75164 c 4.34441,-1.592 8.34949,-3.8901 11.88034,-6.75083 a 56.141472,27.220108 34.430131 0 0 6.83753,5.08525 56.141472,27.220108 34.430131 0 0 61.69682,9.29074 56.141472,27.220108 34.430131 0 0 -20.86804,-46.45507 27.220106,56.141468 80.233072 0 0 38.82042,-33.64439 27.220106,56.141468 80.233072 0 0 -59.94498,-17.301584 27.220106,56.141468 80.233072 0 0 -20.79669,5.688164 c 3.95717,-5.726851 6.25134,-12.721084 6.25134,-20.60836 0,-1.292826 -0.0618,-2.536718 -0.17929,-3.736259 0.17504,-0.84776 0.24344,-1.732477 0.19013,-2.639723 L 266.2936,56.985175 c -0.32596,-5.547604 -5.05465,-9.751286 -10.60225,-9.425325 -1.90197,0.111755 -3.64566,0.741385 -5.10332,1.743708 l 2.32901,-13.790692 a 8.8764515,8.9374323 1.1867896e-8 0 0 0.7235,0.03252 8.8764515,8.9374323 1.1867896e-8 0 0 8.87615,-8.937574 8.8764515,8.9374323 1.1867896e-8 0 0 -8.87615,-8.937124 z" />
        <ellipse
           style="fill:#d7d7d7;fill-opacity:1;stroke:none;stroke-width:15.875;stroke-linecap:round;stroke-linejoin:round;paint-order:stroke fill markers"
           id="ellipse15207"
           cx="-188.36754"
           cy="95.598633"
           rx="56.141468"
           ry="27.220106"
           inkscape:transform-center-x="52.286337"
           inkscape:transform-center-y="-8.4183811"
           transform="matrix(-0.98550598,-0.16964068,-0.16964068,0.98550598,0,0)" />
        <ellipse
           style="fill:#d7d7d7;fill-opacity:1;stroke:none;stroke-width:15.875;stroke-linecap:round;stroke-linejoin:round;paint-order:stroke fill markers"
           id="ellipse15209"
           cx="-53.81522"
           cy="236.93535"
           rx="56.141472"
           ry="27.220108"
           inkscape:transform-center-x="43.355151"
           inkscape:transform-center-y="30.414751"
           transform="matrix(-0.82481628,0.56540084,0.56540084,0.82481628,0,0)" />
        <ellipse
           style="fill:#d7d7d7;fill-opacity:1;stroke:none;stroke-width:15.875;stroke-linecap:round;stroke-linejoin:round;paint-order:stroke fill markers"
           id="ellipse15211"
           cx="261.08755"
           cy="172.96587"
           rx="56.141468"
           ry="27.220106"
           inkscape:transform-center-x="-52.286359"
           inkscape:transform-center-y="-8.4183785"
           transform="rotate(-9.7669281)" />
        <path
           id="path15213"
           style="fill:#c2c2c2;fill-opacity:1;stroke:none;stroke-width:15.875;stroke-linecap:round;stroke-linejoin:round;paint-order:stroke fill markers"
           inkscape:transform-center-x="52.286337"
           inkscape:transform-center-y="-8.4183811"
           d="m 207.30673,126.12099 a 27.220108,56.141472 55.569869 0 0 -44.34613,16.42845 27.220108,56.141472 55.569869 0 0 -10.02368,7.73596 56.141468,27.220106 9.7669281 0 0 11.86543,2.70785 56.141468,27.220106 9.7669281 0 0 59.94517,-17.30179 56.141468,27.220106 9.7669281 0 0 0.18708,-2.00763 27.220108,56.141472 55.569869 0 0 -0.27699,-0.42529 27.220108,56.141472 55.569869 0 0 -17.35088,-7.13755 z" />
        <ellipse
           style="fill:#d7d7d7;fill-opacity:1;stroke:none;stroke-width:15.875;stroke-linecap:round;stroke-linejoin:round;paint-order:stroke fill markers"
           id="ellipse15215"
           cx="322.35486"
           cy="-20.924355"
           rx="56.141472"
           ry="27.220108"
           inkscape:transform-center-x="-43.35516"
           inkscape:transform-center-y="30.414752"
           transform="rotate(34.430131)" />
        <path
           id="path15217"
           style="fill:#c2c2c2;fill-opacity:1;stroke:none;stroke-width:15.875;stroke-linecap:round;stroke-linejoin:round;paint-order:stroke fill markers"
           inkscape:transform-center-x="-52.286359"
           inkscape:transform-center-y="-8.4183785"
           d="m 248.75846,126.12099 a 56.141472,27.220108 34.430131 0 0 -17.35088,7.13754 56.141472,27.220108 34.430131 0 0 -0.2713,0.46303 27.220106,56.141468 80.233072 0 0 0.18138,1.9699 27.220106,56.141468 80.233072 0 0 59.94519,17.30179 27.220106,56.141468 80.233072 0 0 11.88972,-2.70526 56.141472,27.220108 34.430131 0 0 -10.04797,-7.73855 56.141472,27.220108 34.430131 0 0 -44.34614,-16.42845 z" />
        <path
           sodipodi:type="star"
           style="fill:#000000;fill-opacity:1;stroke:none;stroke-width:26.0006;stroke-linecap:round;stroke-linejoin:round;paint-order:stroke fill markers"
           id="path15219"
           inkscape:flatsided="true"
           sodipodi:sides="3"
           sodipodi:cx="146.20473"
           sodipodi:cy="117.4481"
           sodipodi:r1="57.217747"
           sodipodi:r2="41.982182"
           sodipodi:arg1="1.5707963"
           sodipodi:arg2="2.6179939"
           inkscape:rounded="0"
           inkscape:randomized="0"
           d="m 146.20473,174.66584 -49.552026,-85.826615 99.104046,-2e-6 z"
           inkscape:transform-center-x="-2.8174783e-06"
           transform="matrix(0.62370055,0,0,0.59769912,138.10825,108.47192)"
           inkscape:transform-center-y="2.6453389e-06" />
        <circle
           style="fill:#ffaa00;fill-opacity:1;stroke:none;stroke-width:5.29167;stroke-linecap:round;stroke-linejoin:round;stroke-dasharray:none;stroke-opacity:1;paint-order:stroke fill markers"
           id="circle15221"
           cx="229.29622"
           cy="149.98849"
           r="39.805218" />
        <path
           id="path15223"
           style="fill:#000000;fill-opacity:1;stroke:none;stroke-width:15.875;stroke-linecap:round;stroke-linejoin:round;stroke-opacity:1;paint-order:stroke fill markers"
           d="m 229.29609,110.18346 a 39.805218,39.805218 0 0 0 -29.04836,12.59975 44.111374,69.922462 0 0 0 29.08608,17.40772 44.111374,69.922462 0 0 0 29.05611,-17.36587 39.805218,39.805218 0 0 0 -29.09383,-12.6416 z" />
        <path
           id="path15225"
           style="fill:#000000;fill-opacity:1;stroke:none;stroke-width:15.875;stroke-linecap:round;stroke-linejoin:round;stroke-opacity:1;paint-order:stroke fill markers"
           d="m 190.98783,139.22561 a 39.805218,39.805218 0 0 0 -1.49707,10.76265 39.805218,39.805218 0 0 0 0.63046,6.91276 62.071892,65.151703 0 0 0 40.14793,15.52153 62.071892,65.151703 0 0 0 37.82302,-13.53354 39.805218,39.805218 0 0 0 1.00924,-8.90075 39.805218,39.805218 0 0 0 -1.10071,-9.20977 57.394672,65.151703 0 0 1 -37.73155,16.1153 57.394672,65.151703 0 0 1 -39.28132,-17.66818 z" />
        <circle
           style="fill:none;fill-opacity:1;stroke:#ffffff;stroke-width:3.41339;stroke-linecap:round;stroke-linejoin:round;stroke-dasharray:none;stroke-opacity:0.147399;paint-order:stroke fill markers"
           id="circle1823"
           cx="229.29622"
           cy="149.98849"
           r="36.680523" />
        <circle
           style="fill:none;fill-opacity:1;stroke:#000000;stroke-width:3.70417;stroke-linecap:round;stroke-linejoin:round;stroke-dasharray:none;stroke-opacity:1;paint-order:stroke fill markers"
           id="circle15239"
           cx="229.29622"
           cy="149.98849"
           r="39.805218" />
        <g
           id="g2030"
           transform="translate(-204.17594)">
          <path
             id="circle1825"
             style="stroke-width:15.875;stroke-linecap:round;stroke-linejoin:round;paint-order:stroke fill markers"
             d="m 471.65876,84.422211 c 0,21.983809 -17.8214,37.030459 -39.80521,37.030459 -21.98382,0 -39.80522,-15.04664 -39.80522,-37.030459 0,-21.983816 18.28386,-30.324796 40.26768,-30.324795 21.98381,5e-6 39.34275,8.340983 39.34275,30.324795 z"
             sodipodi:nodetypes="sssss" />
          <rect
             style="fill:#000000;fill-opacity:1;stroke:none;stroke-width:5.47144;stroke-linecap:round;stroke-linejoin:round;stroke-dasharray:none;stroke-opacity:0.147399;paint-order:markers stroke fill"
             id="rect1932"
             width="20.062016"
             height="41.158909"
             x="396.26331"
             y="21.782022"
             ry="10.031008"
             transform="rotate(3.5517315)" />
          <rect
             style="fill:#000000;fill-opacity:1;stroke:none;stroke-width:5.47144;stroke-linecap:round;stroke-linejoin:round;stroke-dasharray:none;stroke-opacity:0.147399;paint-order:markers stroke fill"
             id="rect1986"
             width="20.062016"
             height="41.158909"
             x="446.21753"
             y="74.449844"
             ry="10.031008"
             transform="rotate(-3.3626742)" />
          <rect
             style="fill:#000000;fill-opacity:1;stroke:none;stroke-width:5.47144;stroke-linecap:round;stroke-linejoin:round;stroke-dasharray:none;stroke-opacity:0.147399;paint-order:markers stroke fill"
             id="rect1990"
             width="20.062016"
             height="41.158909"
             x="412.00037"
             y="40.456753"
             ry="10.031008" />
          <rect
             style="fill:#000000;fill-opacity:1;stroke:none;stroke-width:5.47144;stroke-linecap:round;stroke-linejoin:round;stroke-dasharray:none;stroke-opacity:0.147399;paint-order:markers stroke fill"
             id="rect1992"
             width="20.062016"
             height="41.158909"
             x="431.79489"
             y="40.456753"
             ry="10.031008" />
          <ellipse
             style="fill:#000000;fill-opacity:1;stroke:none;stroke-width:3.70417;stroke-dasharray:none;stroke-opacity:1;paint-order:normal"
             id="ellipse1994"
             cx="404.78574"
             cy="28.141689"
             rx="8.8764515"
             ry="8.9374323" />
          <ellipse
             style="fill:#000000;fill-opacity:1;stroke:none;stroke-width:3.70417;stroke-dasharray:none;stroke-opacity:1;paint-order:normal"
             id="ellipse1996"
             cx="457.77884"
             cy="26.607979"
             rx="8.8764515"
             ry="8.9374323" />
          <path
             style="fill:none;stroke:#000000;stroke-width:3.70417;stroke-linecap:butt;stroke-linejoin:miter;stroke-dasharray:none;stroke-opacity:1"
             d="m 405.94835,31.143942 8.47124,28.081338 36.56435,1.122285 4.91004,-29.080005"
             id="path1998"
             sodipodi:nodetypes="cccc" />
          <path
             style="fill:none;stroke:#ffffff;stroke-width:4.81836;stroke-linecap:round;stroke-linejoin:round;stroke-dasharray:none;stroke-opacity:1"
             d="m 432.29334,91.675847 v 5.926065"
             id="path2004"
             sodipodi:nodetypes="cc" />
        </g>
        <circle
           style="fill:#ffffff;fill-opacity:1;stroke-width:2.11901;stroke-linecap:round;stroke-linejoin:round;paint-order:markers stroke fill"
           id="circle4505"
           cx="208.34282"
           cy="89.12455"
           r="11.5053" />
        <circle
           style="fill:#ffffff;fill-opacity:1;stroke-width:2.11901;stroke-linecap:round;stroke-linejoin:round;paint-order:markers stroke fill"
           id="circle4507"
           cx="249.20691"
           cy="89.702621"
           r="11.5053" />
        <ellipse
           style="fill:#000000;fill-opacity:1;stroke-width:2.11901;stroke-linecap:round;stroke-linejoin:round;paint-order:markers stroke fill"
           id="ellipse4509"
           cx="209.36337"
           cy="89.873711"
           rx="7.4383106"
           ry="7.5453367" />
        <ellipse
           style="fill:#000000;fill-opacity:1;stroke-width:2.11901;stroke-linecap:round;stroke-linejoin:round;paint-order:markers stroke fill"
           id="ellipse4511"
           cx="248.23763"
           cy="90.451782"
           rx="7.4383106"
           ry="7.5453367" />
      </g>
    </g>
  </g>
</svg>
