<?xml version="1.0" encoding="UTF-8" standalone="no"?>
<svg
   xmlns:dc="http://purl.org/dc/elements/1.1/"
   xmlns:cc="http://creativecommons.org/ns#"
   xmlns:rdf="http://www.w3.org/1999/02/22-rdf-syntax-ns#"
   xmlns:svg="http://www.w3.org/2000/svg"
   xmlns="http://www.w3.org/2000/svg"
   xmlns:sodipodi="http://sodipodi.sourceforge.net/DTD/sodipodi-0.dtd"
   xmlns:inkscape="http://www.inkscape.org/namespaces/inkscape"
   version="1.1"
   id="Capa_1"
   x="0px"
   y="0px"
   width="12"
   height="12"
   viewBox="0 0 12 12"
   xml:space="preserve"
   sodipodi:docname="clock.svg"
   inkscape:version="1.0.1 (3bc2e813f5, 2020-09-07)"><metadata
   id="metadata111"><rdf:RDF><cc:Work
       rdf:about=""><dc:format>image/svg+xml</dc:format><dc:type
         rdf:resource="http://purl.org/dc/dcmitype/StillImage" /><dc:title></dc:title></cc:Work></rdf:RDF></metadata><defs
   id="defs109" /><sodipodi:namedview
   pagecolor="#ffffff"
   bordercolor="#666666"
   borderopacity="1"
   objecttolerance="10"
   gridtolerance="10"
   guidetolerance="10"
   inkscape:pageopacity="0"
   inkscape:pageshadow="2"
   inkscape:window-width="1822"
   inkscape:window-height="1030"
   id="namedview107"
   showgrid="false"
   inkscape:zoom="66.499984"
   inkscape:cx="6.0000003"
   inkscape:cy="6.3232657"
   inkscape:window-x="0"
   inkscape:window-y="0"
   inkscape:window-maximized="0"
   inkscape:current-layer="Capa_1" />
<g
   id="g74"
   transform="matrix(0.01960807,0,0,0.0196288,0,0.31691904)"
   style="fill:#800080">
	<g
   id="g72"
   style="fill:#800080">
		<path
   d="m 254.229,180.732 c -9.465,-13.319 -27.982,-16.487 -41.34,-6.993 -13.349,9.474 -16.487,27.992 -7.003,41.35 l 56.503,79.552 c -0.618,2.933 -0.971,5.983 -0.971,9.111 0,24.226 19.616,43.861 43.831,43.861 12.75,0 24.127,-5.521 32.14,-14.201 h 63.565 c 16.379,0 29.648,-13.28 29.648,-29.65 0,-16.369 -13.27,-29.649 -29.648,-29.649 H 337.38 c -6.807,-7.375 -16.065,-12.299 -26.511,-13.652 z"
   id="path60"
   style="fill:#800080" />
		<path
   d="m 514.216,209.282 c 7.797,16.909 13.564,34.926 17.026,53.767 1.108,6.062 6.649,10.229 12.789,9.671 l 55.238,-5.081 c 3.295,-0.294 6.307,-1.952 8.327,-4.57 2.03,-2.629 2.854,-5.963 2.314,-9.229 -5.316,-32.022 -15.585,-62.339 -30.022,-90.193 -1.628,-3.168 -4.59,-5.424 -8.071,-6.179 -3.481,-0.735 -7.11,0.098 -9.906,2.315 l -44.302,35.19 c -4.266,3.423 -5.688,9.327 -3.393,14.309 z"
   id="path62"
   style="fill:#800080" />
		<path
   d="m 472.974,474.026 c -4.512,-3.09 -10.533,-2.707 -14.623,0.922 -35.642,31.64 -81.209,52.314 -131.416,56.66 V 504.97 c 0,-10.926 -8.847,-19.763 -19.763,-19.763 -10.916,0 -19.772,8.847 -19.772,19.763 v 26.619 C 177.395,522.095 89.566,434.275 80.072,324.261 H 106.7 c 10.916,0 19.763,-8.837 19.763,-19.764 0,-10.926 -8.847,-19.763 -19.763,-19.763 H 79.993 c 8.925,-103.345 87.045,-187.025 187.683,-204.67 5.688,-1 9.847,-5.924 9.847,-11.701 v -56.15 c 0,-3.433 -1.491,-6.719 -4.1,-8.975 -2.599,-2.255 -6.052,-3.285 -9.465,-2.795 C 114.771,21.433 0,149.542 0,304.497 0,474.144 137.526,611.67 307.172,611.67 c 83.338,0 158.721,-33.377 214.037,-87.28 2.55,-2.491 3.854,-5.983 3.55,-9.533 -0.313,-3.551 -2.177,-6.797 -5.119,-8.808 z"
   id="path64"
   style="fill:#800080" />
		<path
   d="m 346.668,80.044 c 7.769,1.354 15.398,3.089 22.862,5.208 5.718,1.618 11.711,-1.216 14.113,-6.64 l 22.539,-50.824 c 1.373,-3.089 1.354,-6.62 -0.04,-9.71 -1.383,-3.07 -4.021,-5.443 -7.247,-6.473 -15.663,-4.963 -31.847,-8.768 -48.48,-11.161 -3.413,-0.48 -6.886,0.54 -9.484,2.795 -2.608,2.256 -4.1,5.542 -4.1,8.994 v 56.081 c -0.01,5.807 4.139,10.74 9.837,11.73 z"
   id="path66"
   style="fill:#800080" />
		<path
   d="m 469.031,144.266 c 4.267,4.345 11.103,4.747 15.869,0.971 l 43.527,-34.592 c 2.618,-2.07 4.236,-5.159 4.472,-8.494 0.235,-3.345 -0.951,-6.601 -3.256,-9.033 -15.84,-16.644 -33.523,-31.483 -52.737,-44.243 -2.912,-1.932 -6.541,-2.491 -9.915,-1.51 -3.364,0.98 -6.13,3.394 -7.543,6.601 l -22.754,51.295 c -2.266,5.139 -0.667,11.161 3.874,14.437 10.161,7.394 19.665,15.633 28.463,24.568 z"
   id="path68"
   style="fill:#800080" />
		<path
   d="m 608.616,330.782 c -2.511,-2.569 -6.032,-3.884 -9.602,-3.55 l -56.444,5.188 c -5.385,0.481 -9.739,4.542 -10.642,9.867 -4.228,25.196 -12.603,48.941 -24.392,70.597 -2.913,5.346 -1.324,12.044 3.707,15.486 l 45.812,31.444 c 2.746,1.893 6.159,2.55 9.405,1.795 3.247,-0.755 6.022,-2.835 7.67,-5.728 19.782,-34.809 32.925,-73.824 37.78,-115.399 0.424,-3.58 -0.793,-7.129 -3.294,-9.7 z"
   id="path70"
   style="fill:#800080" />
	</g>
</g>
<g
   id="g76"
   transform="matrix(0.01960807,0,0,0.0196288,0,0.31691904)"
   style="fill:#800080">
</g>
<g
   id="g78"
   transform="matrix(0.01960807,0,0,0.0196288,0,0.31691904)"
   style="fill:#800080">
</g>
<g
   id="g80"
   transform="matrix(0.01960807,0,0,0.0196288,0,0.31691904)"
   style="fill:#800080">
</g>
<g
   id="g82"
   transform="matrix(0.01960807,0,0,0.0196288,0,0.31691904)"
   style="fill:#800080">
</g>
<g
   id="g84"
   transform="matrix(0.01960807,0,0,0.0196288,0,0.31691904)"
   style="fill:#800080">
</g>
<g
   id="g86"
   transform="matrix(0.01960807,0,0,0.0196288,0,0.31691904)"
   style="fill:#800080">
</g>
<g
   id="g88"
   transform="matrix(0.01960807,0,0,0.0196288,0,0.31691904)"
   style="fill:#800080">
</g>
<g
   id="g90"
   transform="matrix(0.01960807,0,0,0.0196288,0,0.31691904)"
   style="fill:#800080">
</g>
<g
   id="g92"
   transform="matrix(0.01960807,0,0,0.0196288,0,0.31691904)"
   style="fill:#800080">
</g>
<g
   id="g94"
   transform="matrix(0.01960807,0,0,0.0196288,0,0.31691904)"
   style="fill:#800080">
</g>
<g
   id="g96"
   transform="matrix(0.01960807,0,0,0.0196288,0,0.31691904)"
   style="fill:#800080">
</g>
<g
   id="g98"
   transform="matrix(0.01960807,0,0,0.0196288,0,0.31691904)"
   style="fill:#800080">
</g>
<g
   id="g100"
   transform="matrix(0.01960807,0,0,0.0196288,0,0.31691904)"
   style="fill:#800080">
</g>
<g
   id="g102"
   transform="matrix(0.01960807,0,0,0.0196288,0,0.31691904)"
   style="fill:#800080">
</g>
<g
   id="g104"
   transform="matrix(0.01960807,0,0,0.0196288,0,0.31691904)"
   style="fill:#800080">
</g>
</svg>
