<?xml version="1.0" encoding="UTF-8" standalone="no"?>
<svg
   xmlns:dc="http://purl.org/dc/elements/1.1/"
   xmlns:cc="http://creativecommons.org/ns#"
   xmlns:rdf="http://www.w3.org/1999/02/22-rdf-syntax-ns#"
   xmlns:svg="http://www.w3.org/2000/svg"
   xmlns="http://www.w3.org/2000/svg"
   xmlns:sodipodi="http://sodipodi.sourceforge.net/DTD/sodipodi-0.dtd"
   xmlns:inkscape="http://www.inkscape.org/namespaces/inkscape"
   height="16"
   viewBox="0 0 16 16"
   width="16"
   version="1.1"
   id="svg42"
   sodipodi:docname="PlayDebug.svg"
   inkscape:version="1.0.1 (3bc2e813f5, 2020-09-07)">
  <metadata
     id="metadata48">
    <rdf:RDF>
      <cc:Work
         rdf:about="">
        <dc:format>image/svg+xml</dc:format>
        <dc:type
           rdf:resource="http://purl.org/dc/dcmitype/StillImage" />
        <dc:title></dc:title>
      </cc:Work>
    </rdf:RDF>
  </metadata>
  <defs
     id="defs46" />
  <sodipodi:namedview
     pagecolor="#ffffff"
     bordercolor="#666666"
     borderopacity="1"
     objecttolerance="10"
     gridtolerance="10"
     guidetolerance="10"
     inkscape:pageopacity="0"
     inkscape:pageshadow="2"
     inkscape:window-width="1340"
     inkscape:window-height="974"
     id="namedview44"
     showgrid="false"
     inkscape:zoom="45.9375"
     inkscape:cx="8"
     inkscape:cy="8"
     inkscape:window-x="0"
     inkscape:window-y="0"
     inkscape:window-maximized="0"
     inkscape:current-layer="svg42" />
  <path
     d="m4.9883 1039.4c-.5469.01-.98717.4511-.98828.998v8c.0001163.7986.89011 1.275 1.5547.8321l6-4c.59362-.3959.59362-1.2682 0-1.6641l-6-4c-.1678-.1111-.3652-.1689-.56641-.166z"
     fill="#e0e0e0"
     fill-rule="evenodd"
     transform="translate(0 -1036.4)"
     id="path40" />
  <path
     d="m 15.832434,14.798769 -1.041286,-0.97058 c -0.07959,-0.07421 -0.19257,-0.09528 -0.291865,-0.05442 l -0.087,0.03579 c 0.04043,-0.212222 0.06199,-0.433631 0.06199,-0.66146 0,-0.435934 -0.07848,-0.848814 -0.21851,-1.217445 l 0.288713,-0.11868 0.911465,0.849646 c 0.05386,0.0502 0.121146,0.07495 0.188173,0.07495 0.07754,0 0.154706,-0.03307 0.210467,-0.098 0.103977,-0.121007 0.09407,-0.306965 -0.02211,-0.415256 l -1.041286,-0.970676 c -0.07959,-0.07421 -0.192525,-0.09528 -0.291888,-0.05442 l -0.502946,0.206758 C 13.769501,11.041203 13.473167,10.7496 13.132642,10.561487 l 0.192735,-0.465016 0.794905,0.295669 c 0.146826,0.05464 0.308353,-0.02506 0.360799,-0.178092 C 14.533527,10.061117 14.457,9.8928238 14.310148,9.8382126 L 13.266038,9.449858 C 13.125891,9.3976969 12.970924,9.46789 12.911916,9.6102126 l -0.311902,0.7524784 c -0.119122,-0.0247 -0.241373,-0.03771 -0.366022,-0.03771 -0.124647,0 -0.24692,0.01301 -0.366042,0.03771 L 11.556022,9.6102126 C 11.497039,9.4678412 11.342026,9.3976967 11.20188,9.449858 l -1.043968,0.3883546 c -0.146827,0.054611 -0.2233562,0.2229044 -0.1709333,0.3758844 0.052422,0.152931 0.2140193,0.232704 0.3608223,0.178068 l 0.794765,-0.29567 0.192758,0.465065 c -0.340477,0.188114 -0.63679,0.479717 -0.863674,0.843399 L 9.9687753,11.198226 c -0.099319,-0.04082 -0.212279,-0.01982 -0.2918663,0.05442 l -1.0413333,0.970678 c -0.1162055,0.108292 -0.1261303,0.2942 -0.022131,0.415256 0.055763,0.06492 0.1329508,0.098 0.210468,0.098 0.067028,0 0.1342913,-0.02474 0.1881489,-0.07495 l 0.9115579,-0.849671 0.2886435,0.118679 c -0.140053,0.368657 -0.2185347,0.781487 -0.2185347,1.217446 0,0.227829 0.021567,0.449238 0.061995,0.661411 l -0.086877,-0.03575 c -0.099366,-0.04082 -0.2122788,-0.01977 -0.2918658,0.05442 L 8.6355763,14.79877 c -0.116182,0.108291 -0.1261304,0.294248 -0.022155,0.415256 0.055763,0.06492 0.1329506,0.098 0.2104915,0.098 0.067028,0 0.1342913,-0.0247 0.1881489,-0.0749 l 0.9115579,-0.849621 0.3587764,0.147491 c 0.384529,0.857463 1.114431,1.43643 1.951596,1.43643 0.837288,0 1.567142,-0.578967 1.951599,-1.436381 l 0.358893,-0.147516 0.91149,0.849574 c 0.05388,0.05025 0.121121,0.07495 0.188148,0.07495 0.07754,0 0.154729,-0.03307 0.210467,-0.098 0.103977,-0.121032 0.09405,-0.306989 -0.02216,-0.415281 z m -4.48662,-2.558912 c 0,-0.21036 0.163853,-0.381054 0.366019,-0.381054 0.202096,0 0.365927,0.170694 0.365927,0.381054 0,0.210409 -0.163831,0.381004 -0.365927,0.381004 -0.202166,0 -0.366019,-0.170595 -0.366019,-0.381004 z m 0.731923,2.292716 c -0.202143,0 -0.365927,-0.170841 -0.365927,-0.381152 0,-0.21031 0.163784,-0.380906 0.365927,-0.380906 0.201906,0 0.36576,0.170596 0.36576,0.380906 0,0.210311 -0.163854,0.381152 -0.36576,0.381152 z m 0.720136,-1.42658 c 0,-0.235351 0.183494,-0.426208 0.409557,-0.426208 0.226107,0 0.40934,0.190882 0.40934,0.426208 0,0.235717 -0.183233,0.42655 -0.40934,0.42655 -0.226063,0 -0.409557,-0.190833 -0.409557,-0.42655 z"
     id="path89"
     style="fill:#e0e0e0;fill-opacity:1;stroke-width:0.0240045" />
  <g
     id="g91"
     transform="matrix(0.02351861,0,0,0.02450033,8.5414778,8.8553821)"
     style="fill:#e0e0e0;fill-opacity:1" />
  <g
     id="g93"
     transform="matrix(0.02351861,0,0,0.02450033,8.5414778,8.8553821)"
     style="fill:#e0e0e0;fill-opacity:1" />
  <g
     id="g95"
     transform="matrix(0.02351861,0,0,0.02450033,8.5414778,8.8553821)"
     style="fill:#e0e0e0;fill-opacity:1" />
  <g
     id="g97"
     transform="matrix(0.02351861,0,0,0.02450033,8.5414778,8.8553821)"
     style="fill:#e0e0e0;fill-opacity:1" />
  <g
     id="g99"
     transform="matrix(0.02351861,0,0,0.02450033,8.5414778,8.8553821)"
     style="fill:#e0e0e0;fill-opacity:1" />
  <g
     id="g101"
     transform="matrix(0.02351861,0,0,0.02450033,8.5414778,8.8553821)"
     style="fill:#e0e0e0;fill-opacity:1" />
  <g
     id="g103"
     transform="matrix(0.02351861,0,0,0.02450033,8.5414778,8.8553821)"
     style="fill:#e0e0e0;fill-opacity:1" />
  <g
     id="g105"
     transform="matrix(0.02351861,0,0,0.02450033,8.5414778,8.8553821)"
     style="fill:#e0e0e0;fill-opacity:1" />
  <g
     id="g107"
     transform="matrix(0.02351861,0,0,0.02450033,8.5414778,8.8553821)"
     style="fill:#e0e0e0;fill-opacity:1" />
  <g
     id="g109"
     transform="matrix(0.02351861,0,0,0.02450033,8.5414778,8.8553821)"
     style="fill:#e0e0e0;fill-opacity:1" />
  <g
     id="g111"
     transform="matrix(0.02351861,0,0,0.02450033,8.5414778,8.8553821)"
     style="fill:#e0e0e0;fill-opacity:1" />
  <g
     id="g113"
     transform="matrix(0.02351861,0,0,0.02450033,8.5414778,8.8553821)"
     style="fill:#e0e0e0;fill-opacity:1" />
  <g
     id="g115"
     transform="matrix(0.02351861,0,0,0.02450033,8.5414778,8.8553821)"
     style="fill:#e0e0e0;fill-opacity:1" />
  <g
     id="g117"
     transform="matrix(0.02351861,0,0,0.02450033,8.5414778,8.8553821)"
     style="fill:#e0e0e0;fill-opacity:1" />
  <g
     id="g119"
     transform="matrix(0.02351861,0,0,0.02450033,8.5414778,8.8553821)"
     style="fill:#e0e0e0;fill-opacity:1" />
</svg>
