<?xml version="1.0" encoding="UTF-8" standalone="no"?>
<svg
   xmlns:dc="http://purl.org/dc/elements/1.1/"
   xmlns:cc="http://creativecommons.org/ns#"
   xmlns:rdf="http://www.w3.org/1999/02/22-rdf-syntax-ns#"
   xmlns:svg="http://www.w3.org/2000/svg"
   xmlns="http://www.w3.org/2000/svg"
   xmlns:sodipodi="http://sodipodi.sourceforge.net/DTD/sodipodi-0.dtd"
   xmlns:inkscape="http://www.inkscape.org/namespaces/inkscape"
   height="16"
   viewBox="0 0 16 16"
   width="16"
   version="1.1"
   id="svg4"
   sodipodi:docname="Play.svg"
   inkscape:version="1.0.1 (3bc2e813f5, 2020-09-07)">
  <metadata
     id="metadata10">
    <rdf:RDF>
      <cc:Work
         rdf:about="">
        <dc:format>image/svg+xml</dc:format>
        <dc:type
           rdf:resource="http://purl.org/dc/dcmitype/StillImage" />
      </cc:Work>
    </rdf:RDF>
  </metadata>
  <defs
     id="defs8" />
  <sodipodi:namedview
     pagecolor="#ffffff"
     bordercolor="#666666"
     borderopacity="1"
     objecttolerance="10"
     gridtolerance="10"
     guidetolerance="10"
     inkscape:pageopacity="0"
     inkscape:pageshadow="2"
     inkscape:window-width="2162"
     inkscape:window-height="1143"
     id="namedview6"
     showgrid="false"
     inkscape:zoom="45.9375"
     inkscape:cx="5.1591837"
     inkscape:cy="7.0663173"
     inkscape:window-x="0"
     inkscape:window-y="0"
     inkscape:window-maximized="0"
     inkscape:current-layer="svg4" />
  <path
     d="m 7.1651707,3 c -0.5469,0.01 -0.98717,0.4511 -0.98828,0.998 v 8 c 1.163e-4,0.7986 0.89011,1.275 1.5547,0.8321 l 6.0000003,-4 c 0.59362,-0.3959 0.59362,-1.2682 0,-1.6641 l -6.0000003,-4 C 7.5637907,3.0549 7.3663907,2.9971 7.1651807,3 Z"
     fill="#e0e0e0"
     fill-rule="evenodd"
     id="path2" />
  <path
     d="m 3.0835609,2.9675742 c -0.5469004,0.01 -0.9871704,0.4511 -0.9882804,0.998 v 7.9999998 c 1.163e-4,0.7986 0.8901104,1.275 1.5547004,0.8321 l 6,-3.9999998 c 0.5936201,-0.3959 0.5936201,-1.2682 0,-1.6641 l -6,-4 c -0.1678,-0.1111 -0.3652,-0.1689 -0.56641,-0.166 z"
     fill="#e0e0e0"
     fill-rule="evenodd"
     id="path2-5"
     style="mix-blend-mode:multiply" />
</svg>
