<?xml version="1.0" encoding="UTF-8" standalone="no"?>
<!DOCTYPE svg PUBLIC "-//W3C//DTD SVG 1.1//EN" "http://www.w3.org/Graphics/SVG/1.1/DTD/svg11.dtd">
<svg width="100%" height="100%" viewBox="0 0 16 16" version="1.1" xmlns="http://www.w3.org/2000/svg" xmlns:xlink="http://www.w3.org/1999/xlink" xml:space="preserve" xmlns:serif="http://www.serif.com/" style="fill-rule:evenodd;clip-rule:evenodd;stroke-linejoin:round;stroke-miterlimit:2;">
    <rect id="path13168" x="0" y="-8" width="24" height="24" style="fill:none;fill-rule:nonzero;"/>
    <g transform="matrix(0.571429,0,0,0.571429,7.42857,-585.2)">
        <path d="M8,1038.1L5.626,1042.2L1,1043.3L4.236,1046.7L3.877,1051.38L8.016,1049.4L12.174,1051.34L11.778,1046.69L15,1043.3L10.374,1042.2L8,1038.1Z" style="fill:rgb(165,239,172);fill-rule:nonzero;"/>
    </g>
    <path id="path13166" d="M0,12.593L1.778,12.593L1.778,10.815L0,10.815L0,12.593ZM5.728,10.815L3.556,10.815L3.556,12.593L7.416,12.593L5.728,10.815ZM0,9.038L1.778,9.038L1.778,7.26L0,7.26L0,9.038ZM10.976,7.26L3.556,7.26L3.556,9.038L9.946,9.038L10.976,7.26ZM13.024,7.26L14.054,9.038L16,9.038L16,7.26L13.024,7.26ZM0,5.482L1.778,5.482L1.778,3.704L0,3.704L0,5.482ZM3.556,3.704L3.556,5.482L16,5.482L16,3.704L3.556,3.704Z" style="fill:rgb(165,239,172);fill-rule:nonzero;"/>
</svg>
