<?xml version="1.0" encoding="UTF-8" standalone="no"?>
<!-- Created with Inkscape (http://www.inkscape.org/) -->

<svg
   width="830"
   height="300"
   viewBox="0 0 219.60417 79.375003"
   version="1.1"
   id="svg291"
   inkscape:version="1.2 (dc2aedaf03, 2022-05-15)"
   sodipodi:docname="logo.svg"
   inkscape:export-filename="splash.png"
   inkscape:export-xdpi="96"
   inkscape:export-ydpi="96"
   xmlns:inkscape="http://www.inkscape.org/namespaces/inkscape"
   xmlns:sodipodi="http://sodipodi.sourceforge.net/DTD/sodipodi-0.dtd"
   xmlns="http://www.w3.org/2000/svg"
   xmlns:svg="http://www.w3.org/2000/svg">
  <sodipodi:namedview
     id="namedview293"
     pagecolor="#ffffff"
     bordercolor="#666666"
     borderopacity="1.0"
     inkscape:pageshadow="2"
     inkscape:pageopacity="0.0"
     inkscape:pagecheckerboard="0"
     inkscape:document-units="px"
     showgrid="false"
     width="1920px"
     units="px"
     borderlayer="true"
     inkscape:showpageshadow="false"
     inkscape:deskcolor="#d1d1d1"
     inkscape:zoom="1.4142136"
     inkscape:cx="327.03689"
     inkscape:cy="152.73506"
     inkscape:window-width="2560"
     inkscape:window-height="1377"
     inkscape:window-x="2552"
     inkscape:window-y="-8"
     inkscape:window-maximized="1"
     inkscape:current-layer="layer1" />
  <defs
     id="defs288">
    <inkscape:perspective
       sodipodi:type="inkscape:persp3d"
       inkscape:vp_x="-54.183529 : -38.073097 : 1"
       inkscape:vp_y="0 : 1000 : 0"
       inkscape:vp_z="453.81648 : -38.073097 : 1"
       inkscape:persp3d-origin="199.81647 : -85.698095 : 1"
       id="perspective187" />
  </defs>
  <g
     inkscape:label="Layer 1"
     inkscape:groupmode="layer"
     id="layer1">
    <g
       id="g24274"
       transform="matrix(1.0684773,0,0,1.0684773,-18.133932,-1.2269174)">
      <path
         id="ellipse18704"
         style="stroke-width:1.12028;stroke-linecap:round;stroke-linejoin:round;paint-order:markers stroke fill"
         d="m 183.95392,67.140519 c -2e-5,0.878273 -28.75101,-2.378497 -64.21716,-2.378497 -35.466143,0 -64.217136,3.25677 -64.217152,2.378497 -7e-6,-0.878273 28.750993,-5.559004 64.217152,-5.559004 35.46616,0 64.21717,4.680731 64.21716,5.559004 z"
         sodipodi:nodetypes="sssss" />
      <g
         id="g17905"
         transform="matrix(0.57072136,0,0,0.57072136,26.423568,44.491121)">
        <g
           aria-label="Bee"
           id="text12977"
           style="font-size:36.9175px;line-height:1.25;stroke:#000000;stroke-width:2.64583;paint-order:markers stroke fill">
          <path
             d="m 96.023693,13.529426 h 7.570967 q 3.5872,0 5.42587,0.558809 1.85669,0.55881 2.99233,2.271292 1.13565,1.694455 1.13565,5.479941 0,2.55971 -0.81118,3.569173 -0.79315,1.009462 -3.15457,1.550246 2.63182,0.594862 3.56917,1.982874 0.93736,1.369985 0.93736,4.218112 v 2.703919 q 0,2.956284 -0.68499,4.380348 -0.66697,1.424063 -2.14511,1.946821 -1.47814,0.522757 -6.05678,0.522757 h -8.778717 z m 7.588997,4.993236 v 6.489404 q 0.48671,-0.01803 0.7571,-0.01803 1.11762,0 1.42406,-0.540784 0.30645,-0.55881 0.30645,-3.154571 0,-1.369986 -0.25237,-1.91077 -0.25237,-0.558809 -0.66697,-0.703018 -0.39657,-0.144209 -1.56827,-0.162235 z m 0,11.031987 v 8.165833 q 1.60433,-0.05408 2.03695,-0.504731 0.45066,-0.450653 0.45066,-2.217213 v -2.721945 q 0,-1.874716 -0.39658,-2.271291 -0.39657,-0.396575 -2.09103,-0.450653 z"
             style="font-family:Impact;-inkscape-font-specification:Impact"
             id="path24537" />
          <path
             d="m 132.68883,31.177 h -9.42767 v 5.173497 q 0,1.622351 0.23434,2.09103 0.23434,0.468679 0.90131,0.468679 0.8292,0 1.09959,-0.612888 0.28842,-0.630914 0.28842,-2.4155 v -3.154572 h 6.90401 v 1.76656 q 0,2.217214 -0.28842,3.406938 -0.27039,1.189724 -1.29788,2.541683 -1.02749,1.351959 -2.61379,2.036952 -1.56827,0.666966 -3.94772,0.666966 -2.30734,0 -4.0739,-0.666966 -1.76656,-0.666967 -2.758,-1.820639 -0.97341,-1.171698 -1.35196,-2.559709 -0.37855,-1.406038 -0.37855,-4.073904 v -6.976109 q 0,-3.136546 0.84723,-4.939158 0.84723,-1.820638 2.77602,-2.776023 1.9288,-0.973411 4.43443,-0.973411 3.06444,0 5.04731,1.171698 2.0009,1.153672 2.79405,3.082467 0.81118,1.910769 0.81118,5.389811 z m -7.30058,-3.893643 v -1.748534 q 0,-1.85669 -0.19829,-2.397474 -0.19829,-0.540784 -0.81118,-0.540784 -0.75709,0 -0.93735,0.46868 -0.18027,0.450653 -0.18027,2.469578 v 1.748534 z"
             style="font-family:Impact;-inkscape-font-specification:Impact"
             id="path24539" />
          <path
             d="m 151.56218,31.177 h -9.42767 v 5.173497 q 0,1.622351 0.23434,2.09103 0.23434,0.468679 0.90131,0.468679 0.8292,0 1.09959,-0.612888 0.28842,-0.630914 0.28842,-2.4155 v -3.154572 h 6.90401 v 1.76656 q 0,2.217214 -0.28842,3.406938 -0.27039,1.189724 -1.29788,2.541683 -1.02749,1.351959 -2.61379,2.036952 -1.56827,0.666966 -3.94772,0.666966 -2.30734,0 -4.0739,-0.666966 -1.76656,-0.666967 -2.758,-1.820639 -0.97341,-1.171698 -1.35196,-2.559709 -0.37855,-1.406038 -0.37855,-4.073904 v -6.976109 q 0,-3.136546 0.84723,-4.939158 0.84723,-1.820638 2.77602,-2.776023 1.9288,-0.973411 4.43443,-0.973411 3.06444,0 5.04731,1.171698 2.0009,1.153672 2.79405,3.082467 0.81118,1.910769 0.81118,5.389811 z m -7.30058,-3.893643 v -1.748534 q 0,-1.85669 -0.19829,-2.397474 -0.19829,-0.540784 -0.81118,-0.540784 -0.75709,0 -0.93735,0.46868 -0.18027,0.450653 -0.18027,2.469578 v 1.748534 z"
             style="font-family:Impact;-inkscape-font-specification:Impact"
             id="path24541" />
        </g>
        <g
           aria-label="have"
           id="text15971"
           style="font-size:36.9175px;line-height:1.25;stroke:#000000;stroke-width:2.64583;stroke-linecap:round;stroke-linejoin:round;paint-order:markers stroke fill">
          <path
             d="m 162.09202,13.794009 v 6.561509 q 0.93735,-0.865254 2.01892,-1.297881 1.0996,-0.432627 2.3434,-0.432627 1.91077,0 3.2447,0.973411 1.35196,0.97341 1.64038,2.253265 0.30644,1.261829 0.30644,4.632714 v 16.493902 h -7.28255 V 26.141903 q 0,-2.09103 -0.21632,-2.685892 -0.19828,-0.594862 -0.91933,-0.594862 -0.66696,0 -0.9013,0.612888 -0.23434,0.612888 -0.23434,2.433527 v 17.070738 h -7.28256 V 13.794009 Z"
             style="font-family:Impact;-inkscape-font-specification:Impact"
             id="path24553" />
          <path
             d="m 180.65892,28.323064 h -6.8319 v -1.604325 q 0,-2.776023 0.63092,-4.272191 0.64894,-1.514194 2.57773,-2.667866 1.9288,-1.153672 5.01126,-1.153672 3.69536,0 5.57008,1.315907 1.87471,1.297881 2.25326,3.20865 0.37855,1.892743 0.37855,7.823337 v 12.005398 h -7.08427 V 40.85122 q -0.66696,1.279854 -1.7305,1.928795 -1.04552,0.630914 -2.50564,0.630914 -1.91076,0 -3.51509,-1.063541 -1.5863,-1.081568 -1.5863,-4.704818 v -1.964848 q 0,-2.685892 0.84723,-3.659303 0.84723,-0.97341 4.20009,-2.271291 3.58719,-1.406038 3.83956,-1.892743 0.25237,-0.486705 0.25237,-1.982874 0,-1.874716 -0.28842,-2.433526 -0.27039,-0.576836 -0.91933,-0.576836 -0.73908,0 -0.91934,0.486705 -0.18026,0.468679 -0.18026,2.469579 z m 2.30735,3.280755 q -1.74854,1.279854 -2.03696,2.145108 -0.27039,0.865254 -0.27039,2.487605 0,1.856691 0.23434,2.397474 0.25237,0.540784 0.97341,0.540784 0.685,0 0.88328,-0.414601 0.21632,-0.432627 0.21632,-2.235239 z"
             style="font-family:Impact;-inkscape-font-specification:Impact"
             id="path24555" />
          <path
             d="m 207.80626,19.057637 -3.40693,23.920665 h -9.49977 l -3.6593,-23.920665 h 6.50743 l 2.03695,17.449287 q 0.23434,-1.910769 0.79315,-9.373584 0.32447,-4.164034 0.72104,-8.075703 z"
             style="font-family:Impact;-inkscape-font-specification:Impact"
             id="path24557" />
          <path
             d="m 225.38173,31.441583 h -9.42766 v 5.173498 q 0,1.622351 0.23434,2.09103 0.23434,0.468679 0.90131,0.468679 0.8292,0 1.09959,-0.612888 0.28842,-0.630914 0.28842,-2.415501 V 32.99183 h 6.904 v 1.76656 q 0,2.217213 -0.28841,3.406937 -0.2704,1.189724 -1.29789,2.541684 -1.02748,1.351959 -2.61378,2.036951 -1.56828,0.666967 -3.94772,0.666967 -2.30735,0 -4.07391,-0.666967 -1.76656,-0.666966 -2.75799,-1.820638 -0.97341,-1.171698 -1.35196,-2.559709 -0.37855,-1.406038 -0.37855,-4.073904 v -6.97611 q 0,-3.136545 0.84723,-4.939157 0.84722,-1.820639 2.77602,-2.776023 1.92879,-0.973411 4.43442,-0.973411 3.06445,0 5.04732,1.171698 2.0009,1.153672 2.79405,3.082467 0.81117,1.910769 0.81117,5.389811 z m -7.30058,-3.893642 v -1.748534 q 0,-1.856691 -0.19828,-2.397474 -0.19829,-0.540784 -0.81118,-0.540784 -0.7571,0 -0.93736,0.468679 -0.18026,0.450653 -0.18026,2.469579 v 1.748534 z"
             style="font-family:Impact;-inkscape-font-specification:Impact"
             id="path24559" />
        </g>
        <g
           aria-label="Bee"
           id="text17891"
           style="font-size:36.9175px;line-height:1.25;fill:#ffffff;stroke:#000000;stroke-width:2.64577;paint-order:markers stroke fill">
          <path
             d="m 96.023693,12.206508 h 7.570967 q 3.5872,0 5.42587,0.558809 1.85669,0.55881 2.99233,2.271292 1.13565,1.694455 1.13565,5.479941 0,2.55971 -0.81118,3.569173 -0.79315,1.009462 -3.15457,1.550246 2.63182,0.594862 3.56917,1.982874 0.93736,1.369985 0.93736,4.218112 v 2.703919 q 0,2.956284 -0.68499,4.380348 -0.66697,1.424063 -2.14511,1.946821 -1.47814,0.522757 -6.05678,0.522757 h -8.778717 z m 7.588997,4.993236 v 6.489404 q 0.48671,-0.01803 0.7571,-0.01803 1.11762,0 1.42406,-0.540784 0.30645,-0.55881 0.30645,-3.154571 0,-1.369986 -0.25237,-1.910769 -0.25237,-0.55881 -0.66697,-0.703019 -0.39657,-0.144209 -1.56827,-0.162235 z m 0,11.031987 v 8.165833 q 1.60433,-0.05408 2.03695,-0.504731 0.45066,-0.450653 0.45066,-2.217213 v -2.721945 q 0,-1.874716 -0.39658,-2.271291 -0.39657,-0.396575 -2.09103,-0.450653 z"
             style="font-family:Impact;-inkscape-font-specification:Impact"
             id="path24530" />
          <path
             d="m 132.68883,29.854082 h -9.42767 v 5.173497 q 0,1.622351 0.23434,2.09103 0.23434,0.46868 0.90131,0.46868 0.8292,0 1.09959,-0.612889 0.28842,-0.630914 0.28842,-2.4155 v -3.154572 h 6.90401 v 1.76656 q 0,2.217214 -0.28842,3.406938 -0.27039,1.189724 -1.29788,2.541683 -1.02749,1.351959 -2.61379,2.036952 -1.56827,0.666966 -3.94772,0.666966 -2.30734,0 -4.0739,-0.666966 -1.76656,-0.666967 -2.758,-1.820639 -0.97341,-1.171698 -1.35196,-2.559709 -0.37855,-1.406038 -0.37855,-4.073904 V 25.7261 q 0,-3.136546 0.84723,-4.939158 0.84723,-1.820638 2.77602,-2.776023 1.9288,-0.97341 4.43443,-0.97341 3.06444,0 5.04731,1.171698 2.0009,1.153671 2.79405,3.082467 0.81118,1.910769 0.81118,5.38981 z m -7.30058,-3.893643 v -1.748534 q 0,-1.85669 -0.19829,-2.397474 -0.19829,-0.540784 -0.81118,-0.540784 -0.75709,0 -0.93735,0.46868 -0.18027,0.450653 -0.18027,2.469578 v 1.748534 z"
             style="font-family:Impact;-inkscape-font-specification:Impact"
             id="path24532" />
          <path
             d="m 151.56218,29.854082 h -9.42767 v 5.173497 q 0,1.622351 0.23434,2.09103 0.23434,0.46868 0.90131,0.46868 0.8292,0 1.09959,-0.612889 0.28842,-0.630914 0.28842,-2.4155 v -3.154572 h 6.90401 v 1.76656 q 0,2.217214 -0.28842,3.406938 -0.27039,1.189724 -1.29788,2.541683 -1.02749,1.351959 -2.61379,2.036952 -1.56827,0.666966 -3.94772,0.666966 -2.30734,0 -4.0739,-0.666966 -1.76656,-0.666967 -2.758,-1.820639 -0.97341,-1.171698 -1.35196,-2.559709 -0.37855,-1.406038 -0.37855,-4.073904 V 25.7261 q 0,-3.136546 0.84723,-4.939158 0.84723,-1.820638 2.77602,-2.776023 1.9288,-0.97341 4.43443,-0.97341 3.06444,0 5.04731,1.171698 2.0009,1.153671 2.79405,3.082467 0.81118,1.910769 0.81118,5.38981 z m -7.30058,-3.893643 v -1.748534 q 0,-1.85669 -0.19829,-2.397474 -0.19829,-0.540784 -0.81118,-0.540784 -0.75709,0 -0.93735,0.46868 -0.18027,0.450653 -0.18027,2.469578 v 1.748534 z"
             style="font-family:Impact;-inkscape-font-specification:Impact"
             id="path24534" />
        </g>
        <g
           aria-label="have"
           id="text17895"
           style="font-size:36.9175px;line-height:1.25;fill:#ffd000;stroke:#000000;stroke-width:2.64583;stroke-linecap:round;stroke-linejoin:round;paint-order:markers stroke fill">
          <path
             d="M 162.09202,12.471091 V 19.0326 q 0.93735,-0.865254 2.01892,-1.297881 1.0996,-0.432627 2.3434,-0.432627 1.91077,0 3.2447,0.973411 1.35196,0.97341 1.64038,2.253265 0.30644,1.261829 0.30644,4.632714 v 16.493902 h -7.28255 V 24.818985 q 0,-2.09103 -0.21632,-2.685892 -0.19828,-0.594862 -0.91933,-0.594862 -0.66696,0 -0.9013,0.612888 -0.23434,0.612888 -0.23434,2.433527 v 17.070738 h -7.28256 V 12.471091 Z"
             style="font-family:Impact;-inkscape-font-specification:Impact;fill:#ffaa00;fill-opacity:1"
             id="path24544" />
          <path
             d="m 180.65892,27.000146 h -6.8319 v -1.604325 q 0,-2.776023 0.63092,-4.272191 0.64894,-1.514194 2.57773,-2.667866 1.9288,-1.153672 5.01126,-1.153672 3.69536,0 5.57008,1.315907 1.87471,1.297881 2.25326,3.20865 0.37855,1.892743 0.37855,7.823337 v 12.005398 h -7.08427 v -2.127082 q -0.66696,1.279854 -1.7305,1.928795 -1.04552,0.630914 -2.50564,0.630914 -1.91076,0 -3.51509,-1.063541 -1.5863,-1.081568 -1.5863,-4.704818 v -1.964848 q 0,-2.685892 0.84723,-3.659303 0.84723,-0.97341 4.20009,-2.271291 3.58719,-1.406038 3.83956,-1.892743 0.25237,-0.486705 0.25237,-1.982873 0,-1.874717 -0.28842,-2.433527 -0.27039,-0.576836 -0.91933,-0.576836 -0.73908,0 -0.91934,0.486705 -0.18026,0.46868 -0.18026,2.469579 z m 2.30735,3.280755 q -1.74854,1.279854 -2.03696,2.145108 -0.27039,0.865254 -0.27039,2.487605 0,1.856691 0.23434,2.397474 0.25237,0.540784 0.97341,0.540784 0.685,0 0.88328,-0.414601 0.21632,-0.432627 0.21632,-2.235239 z"
             style="font-family:Impact;-inkscape-font-specification:Impact;fill:#ffaa00;fill-opacity:1"
             id="path24546" />
          <path
             d="m 207.80626,17.734719 -3.40693,23.920665 h -9.49977 l -3.6593,-23.920665 h 6.50743 l 2.03695,17.449287 q 0.23434,-1.910769 0.79315,-9.373584 0.32447,-4.164034 0.72104,-8.075703 z"
             style="font-family:Impact;-inkscape-font-specification:Impact;fill:#ffaa00;fill-opacity:1"
             id="path24548" />
          <path
             d="m 225.38173,30.118665 h -9.42766 v 5.173498 q 0,1.622351 0.23434,2.09103 0.23434,0.468679 0.90131,0.468679 0.8292,0 1.09959,-0.612888 0.28842,-0.630914 0.28842,-2.4155 v -3.154572 h 6.904 v 1.76656 q 0,2.217213 -0.28841,3.406937 -0.2704,1.189724 -1.29789,2.541684 -1.02748,1.351959 -2.61378,2.036951 -1.56828,0.666967 -3.94772,0.666967 -2.30735,0 -4.07391,-0.666967 -1.76656,-0.666966 -2.75799,-1.820638 -0.97341,-1.171698 -1.35196,-2.559709 -0.37855,-1.406038 -0.37855,-4.073904 v -6.97611 q 0,-3.136545 0.84723,-4.939157 0.84722,-1.820639 2.77602,-2.776023 1.92879,-0.973411 4.43442,-0.973411 3.06445,0 5.04732,1.171698 2.0009,1.153672 2.79405,3.082467 0.81117,1.910769 0.81117,5.389811 z m -7.30058,-3.893642 v -1.748534 q 0,-1.856691 -0.19828,-2.397474 -0.19829,-0.540784 -0.81118,-0.540784 -0.7571,0 -0.93736,0.468679 -0.18026,0.450653 -0.18026,2.469579 v 1.748534 z"
             style="font-family:Impact;-inkscape-font-specification:Impact;fill:#ffaa00;fill-opacity:1"
             id="path24550" />
        </g>
      </g>
    </g>
    <g
       id="g15241"
       transform="matrix(0.24478702,0,0,0.24478702,53.973193,-2.4948784)">
      <g
         id="g5485">
        <path
           id="ellipse2758"
           style="fill:#d7d7d7;fill-opacity:1;stroke:#ffffff;stroke-width:6.76692;stroke-linecap:round;stroke-linejoin:round;stroke-dasharray:none;stroke-opacity:1;paint-order:stroke fill markers"
           inkscape:transform-center-x="52.286337"
           inkscape:transform-center-y="-8.4183811"
           d="m 253.64054,17.670681 a 8.8764515,8.9374323 1.1867896e-8 0 0 -8.87661,8.937123 8.8764515,8.9374323 1.1867896e-8 0 0 4.57989,7.818911 l -2.16191,12.805255 c -1.3462,-3.949341 -5.07805,-6.775215 -9.49442,-6.775215 -4.9968,0 -9.11699,3.617252 -9.89727,8.386597 -0.7803,-4.769329 -4.90048,-8.386597 -9.89727,-8.386597 -4.30311,0 -7.95621,2.682728 -9.38604,6.473532 l -3.34786,-11.098581 a 8.8764515,8.9374323 1.1867896e-8 0 0 4.36491,-7.690197 8.8764515,8.9374323 1.1867896e-8 0 0 -8.8766,-8.937124 8.8764515,8.9374323 1.1867896e-8 0 0 -8.87661,8.937124 8.8764515,8.9374323 1.1867896e-8 0 0 8.87661,8.937574 8.8764515,8.9374323 1.1867896e-8 0 0 0.99943,-0.06232 l 3.52581,11.687495 c -1.46409,-1.026796 -3.22336,-1.67494 -5.14622,-1.79429 -5.5465,-0.344265 -10.28915,3.844051 -10.63341,9.390551 l -1.30699,21.056366 c -0.05,0.805524 -0.004,1.593705 0.12781,2.354299 -0.19904,1.495794 -0.30394,3.064205 -0.30394,4.710856 0,7.716219 2.19794,14.576351 5.99842,20.2326 a 56.141468,27.220106 9.7669281 0 0 -19.83292,-5.3124 56.141468,27.220106 9.7669281 0 0 -59.94544,17.30158 56.141468,27.220106 9.7669281 0 0 38.84617,33.63853 27.220108,56.141472 55.569869 0 0 -20.89379,46.46093 27.220108,56.141472 55.569869 0 0 61.69682,-9.29074 27.220108,56.141472 55.569869 0 0 8.13279,-6.12262 c 3.81995,3.34608 8.25415,6.00803 13.1119,7.78819 l 14.31006,23.75165 14.3096,-23.75164 c 4.34441,-1.592 8.34949,-3.8901 11.88034,-6.75083 a 56.141472,27.220108 34.430131 0 0 6.83753,5.08525 56.141472,27.220108 34.430131 0 0 61.69682,9.29074 56.141472,27.220108 34.430131 0 0 -20.86804,-46.45507 27.220106,56.141468 80.233072 0 0 38.82042,-33.64439 27.220106,56.141468 80.233072 0 0 -59.94498,-17.301584 27.220106,56.141468 80.233072 0 0 -20.79669,5.688164 c 3.95717,-5.726851 6.25134,-12.721084 6.25134,-20.60836 0,-1.292826 -0.0618,-2.536718 -0.17929,-3.736259 0.17504,-0.84776 0.24344,-1.732477 0.19013,-2.639723 L 266.2936,56.985175 c -0.32596,-5.547604 -5.05465,-9.751286 -10.60225,-9.425325 -1.90197,0.111755 -3.64566,0.741385 -5.10332,1.743708 l 2.32901,-13.790692 a 8.8764515,8.9374323 1.1867896e-8 0 0 0.7235,0.03252 8.8764515,8.9374323 1.1867896e-8 0 0 8.87615,-8.937574 8.8764515,8.9374323 1.1867896e-8 0 0 -8.87615,-8.937124 z" />
        <ellipse
           style="fill:#d7d7d7;fill-opacity:1;stroke:none;stroke-width:15.875;stroke-linecap:round;stroke-linejoin:round;paint-order:stroke fill markers"
           id="ellipse15207"
           cx="-188.36754"
           cy="95.598633"
           rx="56.141468"
           ry="27.220106"
           inkscape:transform-center-x="52.286337"
           inkscape:transform-center-y="-8.4183811"
           transform="matrix(-0.98550598,-0.16964068,-0.16964068,0.98550598,0,0)" />
        <ellipse
           style="fill:#d7d7d7;fill-opacity:1;stroke:none;stroke-width:15.875;stroke-linecap:round;stroke-linejoin:round;paint-order:stroke fill markers"
           id="ellipse15209"
           cx="-53.81522"
           cy="236.93535"
           rx="56.141472"
           ry="27.220108"
           inkscape:transform-center-x="43.355151"
           inkscape:transform-center-y="30.414751"
           transform="matrix(-0.82481628,0.56540084,0.56540084,0.82481628,0,0)" />
        <ellipse
           style="fill:#d7d7d7;fill-opacity:1;stroke:none;stroke-width:15.875;stroke-linecap:round;stroke-linejoin:round;paint-order:stroke fill markers"
           id="ellipse15211"
           cx="261.08755"
           cy="172.96587"
           rx="56.141468"
           ry="27.220106"
           inkscape:transform-center-x="-52.286359"
           inkscape:transform-center-y="-8.4183785"
           transform="rotate(-9.7669281)" />
        <path
           id="path15213"
           style="fill:#c2c2c2;fill-opacity:1;stroke:none;stroke-width:15.875;stroke-linecap:round;stroke-linejoin:round;paint-order:stroke fill markers"
           inkscape:transform-center-x="52.286337"
           inkscape:transform-center-y="-8.4183811"
           d="m 207.30673,126.12099 a 27.220108,56.141472 55.569869 0 0 -44.34613,16.42845 27.220108,56.141472 55.569869 0 0 -10.02368,7.73596 56.141468,27.220106 9.7669281 0 0 11.86543,2.70785 56.141468,27.220106 9.7669281 0 0 59.94517,-17.30179 56.141468,27.220106 9.7669281 0 0 0.18708,-2.00763 27.220108,56.141472 55.569869 0 0 -0.27699,-0.42529 27.220108,56.141472 55.569869 0 0 -17.35088,-7.13755 z" />
        <ellipse
           style="fill:#d7d7d7;fill-opacity:1;stroke:none;stroke-width:15.875;stroke-linecap:round;stroke-linejoin:round;paint-order:stroke fill markers"
           id="ellipse15215"
           cx="322.35486"
           cy="-20.924355"
           rx="56.141472"
           ry="27.220108"
           inkscape:transform-center-x="-43.35516"
           inkscape:transform-center-y="30.414752"
           transform="rotate(34.430131)" />
        <path
           id="path15217"
           style="fill:#c2c2c2;fill-opacity:1;stroke:none;stroke-width:15.875;stroke-linecap:round;stroke-linejoin:round;paint-order:stroke fill markers"
           inkscape:transform-center-x="-52.286359"
           inkscape:transform-center-y="-8.4183785"
           d="m 248.75846,126.12099 a 56.141472,27.220108 34.430131 0 0 -17.35088,7.13754 56.141472,27.220108 34.430131 0 0 -0.2713,0.46303 27.220106,56.141468 80.233072 0 0 0.18138,1.9699 27.220106,56.141468 80.233072 0 0 59.94519,17.30179 27.220106,56.141468 80.233072 0 0 11.88972,-2.70526 56.141472,27.220108 34.430131 0 0 -10.04797,-7.73855 56.141472,27.220108 34.430131 0 0 -44.34614,-16.42845 z" />
        <path
           sodipodi:type="star"
           style="fill:#000000;fill-opacity:1;stroke:none;stroke-width:26.0006;stroke-linecap:round;stroke-linejoin:round;paint-order:stroke fill markers"
           id="path15219"
           inkscape:flatsided="true"
           sodipodi:sides="3"
           sodipodi:cx="146.20473"
           sodipodi:cy="117.4481"
           sodipodi:r1="57.217747"
           sodipodi:r2="41.982182"
           sodipodi:arg1="1.5707963"
           sodipodi:arg2="2.6179939"
           inkscape:rounded="0"
           inkscape:randomized="0"
           d="m 146.20473,174.66584 -49.552026,-85.826615 99.104046,-2e-6 z"
           inkscape:transform-center-x="-2.8174783e-06"
           transform="matrix(0.62370055,0,0,0.59769912,138.10825,108.47192)"
           inkscape:transform-center-y="2.6453389e-06" />
        <circle
           style="fill:#ffaa00;fill-opacity:1;stroke:none;stroke-width:5.29167;stroke-linecap:round;stroke-linejoin:round;stroke-dasharray:none;stroke-opacity:1;paint-order:stroke fill markers"
           id="circle15221"
           cx="229.29622"
           cy="149.98849"
           r="39.805218" />
        <path
           id="path15223"
           style="fill:#000000;fill-opacity:1;stroke:none;stroke-width:15.875;stroke-linecap:round;stroke-linejoin:round;stroke-opacity:1;paint-order:stroke fill markers"
           d="m 229.29609,110.18346 a 39.805218,39.805218 0 0 0 -29.04836,12.59975 44.111374,69.922462 0 0 0 29.08608,17.40772 44.111374,69.922462 0 0 0 29.05611,-17.36587 39.805218,39.805218 0 0 0 -29.09383,-12.6416 z" />
        <path
           id="path15225"
           style="fill:#000000;fill-opacity:1;stroke:none;stroke-width:15.875;stroke-linecap:round;stroke-linejoin:round;stroke-opacity:1;paint-order:stroke fill markers"
           d="m 190.98783,139.22561 a 39.805218,39.805218 0 0 0 -1.49707,10.76265 39.805218,39.805218 0 0 0 0.63046,6.91276 62.071892,65.151703 0 0 0 40.14793,15.52153 62.071892,65.151703 0 0 0 37.82302,-13.53354 39.805218,39.805218 0 0 0 1.00924,-8.90075 39.805218,39.805218 0 0 0 -1.10071,-9.20977 57.394672,65.151703 0 0 1 -37.73155,16.1153 57.394672,65.151703 0 0 1 -39.28132,-17.66818 z" />
        <circle
           style="fill:none;fill-opacity:1;stroke:#ffffff;stroke-width:3.41339;stroke-linecap:round;stroke-linejoin:round;stroke-dasharray:none;stroke-opacity:0.147399;paint-order:stroke fill markers"
           id="circle1823"
           cx="229.29622"
           cy="149.98849"
           r="36.680523" />
        <circle
           style="fill:none;fill-opacity:1;stroke:#000000;stroke-width:3.70417;stroke-linecap:round;stroke-linejoin:round;stroke-dasharray:none;stroke-opacity:1;paint-order:stroke fill markers"
           id="circle15239"
           cx="229.29622"
           cy="149.98849"
           r="39.805218" />
        <g
           id="g2030"
           transform="translate(-204.17594)">
          <path
             id="circle1825"
             style="stroke-width:15.875;stroke-linecap:round;stroke-linejoin:round;paint-order:stroke fill markers"
             d="m 471.65876,84.422211 c 0,21.983809 -17.8214,37.030459 -39.80521,37.030459 -21.98382,0 -39.80522,-15.04664 -39.80522,-37.030459 0,-21.983816 18.28386,-30.324796 40.26768,-30.324795 21.98381,5e-6 39.34275,8.340983 39.34275,30.324795 z"
             sodipodi:nodetypes="sssss" />
          <rect
             style="fill:#000000;fill-opacity:1;stroke:none;stroke-width:5.47144;stroke-linecap:round;stroke-linejoin:round;stroke-dasharray:none;stroke-opacity:0.147399;paint-order:markers stroke fill"
             id="rect1932"
             width="20.062016"
             height="41.158909"
             x="396.26331"
             y="21.782022"
             ry="10.031008"
             transform="rotate(3.5517315)" />
          <rect
             style="fill:#000000;fill-opacity:1;stroke:none;stroke-width:5.47144;stroke-linecap:round;stroke-linejoin:round;stroke-dasharray:none;stroke-opacity:0.147399;paint-order:markers stroke fill"
             id="rect1986"
             width="20.062016"
             height="41.158909"
             x="446.21753"
             y="74.449844"
             ry="10.031008"
             transform="rotate(-3.3626742)" />
          <rect
             style="fill:#000000;fill-opacity:1;stroke:none;stroke-width:5.47144;stroke-linecap:round;stroke-linejoin:round;stroke-dasharray:none;stroke-opacity:0.147399;paint-order:markers stroke fill"
             id="rect1990"
             width="20.062016"
             height="41.158909"
             x="412.00037"
             y="40.456753"
             ry="10.031008" />
          <rect
             style="fill:#000000;fill-opacity:1;stroke:none;stroke-width:5.47144;stroke-linecap:round;stroke-linejoin:round;stroke-dasharray:none;stroke-opacity:0.147399;paint-order:markers stroke fill"
             id="rect1992"
             width="20.062016"
             height="41.158909"
             x="431.79489"
             y="40.456753"
             ry="10.031008" />
          <ellipse
             style="fill:#000000;fill-opacity:1;stroke:none;stroke-width:3.70417;stroke-dasharray:none;stroke-opacity:1;paint-order:normal"
             id="ellipse1994"
             cx="404.78574"
             cy="28.141689"
             rx="8.8764515"
             ry="8.9374323" />
          <ellipse
             style="fill:#000000;fill-opacity:1;stroke:none;stroke-width:3.70417;stroke-dasharray:none;stroke-opacity:1;paint-order:normal"
             id="ellipse1996"
             cx="457.77884"
             cy="26.607979"
             rx="8.8764515"
             ry="8.9374323" />
          <path
             style="fill:none;stroke:#000000;stroke-width:3.70417;stroke-linecap:butt;stroke-linejoin:miter;stroke-dasharray:none;stroke-opacity:1"
             d="m 405.94835,31.143942 8.47124,28.081338 36.56435,1.122285 4.91004,-29.080005"
             id="path1998"
             sodipodi:nodetypes="cccc" />
          <path
             style="fill:none;stroke:#ffffff;stroke-width:4.81836;stroke-linecap:round;stroke-linejoin:round;stroke-dasharray:none;stroke-opacity:1"
             d="m 432.29334,91.675847 v 5.926065"
             id="path2004"
             sodipodi:nodetypes="cc" />
        </g>
        <circle
           style="fill:#ffffff;fill-opacity:1;stroke-width:2.11901;stroke-linecap:round;stroke-linejoin:round;paint-order:markers stroke fill"
           id="circle4505"
           cx="208.34282"
           cy="89.12455"
           r="11.5053" />
        <circle
           style="fill:#ffffff;fill-opacity:1;stroke-width:2.11901;stroke-linecap:round;stroke-linejoin:round;paint-order:markers stroke fill"
           id="circle4507"
           cx="249.20691"
           cy="89.702621"
           r="11.5053" />
        <ellipse
           style="fill:#000000;fill-opacity:1;stroke-width:2.11901;stroke-linecap:round;stroke-linejoin:round;paint-order:markers stroke fill"
           id="ellipse4509"
           cx="209.36337"
           cy="89.873711"
           rx="7.4383106"
           ry="7.5453367" />
        <ellipse
           style="fill:#000000;fill-opacity:1;stroke-width:2.11901;stroke-linecap:round;stroke-linejoin:round;paint-order:markers stroke fill"
           id="ellipse4511"
           cx="248.23763"
           cy="90.451782"
           rx="7.4383106"
           ry="7.5453367" />
      </g>
    </g>
  </g>
</svg>
